<svg id="Lag_1" data-name="Lag 1" xmlns="http://www.w3.org/2000/svg" viewBox="0 0 298.96 235.64"><defs><style>.cls-1{fill:#fff;}.cls-2{fill:#c2c2c6;}.cls-3{fill:#545456;}.cls-4{fill:#c9c9c9;}.cls-5,.cls-6{fill:none;stroke:#000;stroke-miterlimit:10;}.cls-6{stroke-width:0.75px;}</style></defs><title>arbejde</title><path class="cls-1" d="M327.32,198.67a221.69,221.69,0,0,0,27.05,13.57c5.43,2.2,6.22,2.23,6.83,3.42,4.73,9.27-25.21,43.62-49.74,39.44-6.57-1.12-12.94-7.76-25.4-21-22.62-24-26.45-34.42-44.64-51-9.74-8.88-14.62-13.31-21.18-17.16-4.81-2.83-8.94-6.76-13.91-9.29-2.63-1.34-5.18-2.42-5.48-4.48s1.82-3.83,5.45-6.92c10.25-8.73,13.61-12,13-13.07s-3.74.86-6.69-1.17c-1.19-.81-1.8-1.88-2.77-1.72s-1.14,1.43-2.22,2.32c-.75.61-2.06,1.14-5.34.53-3-.55-12.63-2.33-15.07-9.47-.43-1.29-1.23-3-.49-4.44,1.25-2.47,5.16-1.2,7-3.72,2-2.7-1-6.34.93-8.23,1.7-1.67,4.69.48,6.47-1.25s-.44-4.85,1.44-7.07c1.67-2,4.22-.43,6.16-2.45s.07-4.72,2-7.06c2.39-2.87,7.87-2,8.91-1.8,2.8.46,2.91,1.35,5.25,1.9,5.69,1.34,8.13-3.21,13.27-2.7,3.07.31,5.57,2.94,10.56,8.21,4.66,4.92,7.38,7.79,8.15,12.21.52,3-.25,4.66-1.84,10.52-3,10.88-4.45,16.32-3.77,20.56.9,5.6,5.23,9,13.87,15.58,27.38,20.86,39.53,29.54,48.18,35.87C321.44,194.76,323,196.08,327.32,198.67Z" transform="translate(-133.04 -19.98)"/><path d="M254.59,198.39c17.9,19.41,32.83,44.27,56.68,57,.42.23.8-.41.38-.64-23.78-12.72-38.69-37.57-56.53-56.92-.32-.35-.85.18-.53.53Z" transform="translate(-133.04 -19.98)"/><path class="cls-2" d="M253,97.37l-12-11.64,20.68-22.29,13.55,13.08Z" transform="translate(-133.04 -19.98)"/><path class="cls-3" d="M300.15,80.1c-2.37,13.74-7.44,26.43-8.74,26.07-.29-.07-.37-.78.59-16.89.4-6.66.63-10-1.58-13.34-.47-.71-3-4.79-6.23-4.67-3.46.13-4.1,4.89-7.72,5.23-.6,0-1.84,0-8-5.18-6.65-5.64-6.9-7.06-6.89-7.88,0-2.48,2.39-2.73,3.95-6.09,2.44-5.26.56-13.14-3.7-15.61-2.27-1.32-3.64,0-6.54-1.59s-5.86-4.84-5.47-8.18c.08-.74.36-1.69,5.41-6.54,5.57-5.35,6.5-5.42,7-5.37,2.8.24,4.7,4.3,6.73,8.66,2.68,5.75,1.92,7.45,4.21,9.31,3,2.48,5.36.25,8.77,2.88,2.21,1.71,1.74,3,5.27,7.7,1.17,1.55,1.73,2.06,4,4.6,5,5.52,7.47,8.27,8.37,9.76S302.24,68,300.15,80.1Z" transform="translate(-133.04 -19.98)"/><path class="cls-2" d="M149.63,201A42.29,42.29,0,0,1,138,191.59,41.84,41.84,0,0,1,133,184.5l56.73-57c.79.62,7.16,5.56,12.87,5.48,1.65,0,3.54-.05,5-1.33,1.17-1,1.17-2,2.22-2.32s1.84.44,4.41,2c1.51.91,2.77,1.59,3.59,2Q183.75,167.15,149.63,201Z" transform="translate(-133.04 -19.98)"/><path d="M251.67,137.38a65.92,65.92,0,0,1,1.94-17.47c1.09-4.27,4.19-9.11,3.66-13.61-.36-3.14-2.72-5.73-4.65-8.07A89.73,89.73,0,0,0,240.8,86.5c-.37-.31-.91.22-.53.53a89.24,89.24,0,0,1,10.11,9.72,40.37,40.37,0,0,1,4.27,5.31c2.23,3.72,1.68,7.15.37,10.89a69.64,69.64,0,0,0-4.1,24.43.38.38,0,0,0,.75,0Z" transform="translate(-133.04 -19.98)"/><path d="M241.23,86.79c-2.15-1.42-4.3-1.36-6.69-.62-4.73,1.46-8.55,3.26-13.69,3.19a.38.38,0,0,0,0,.75,26.51,26.51,0,0,0,8.76-1.2c3.68-1.2,7.44-4,11.24-1.47.4.26.78-.39.38-.65Z" transform="translate(-133.04 -19.98)"/><path d="M220.09,89.27a4.21,4.21,0,0,0-.32,7.08c.38.29.76-.36.38-.65a3.45,3.45,0,0,1,.32-5.78c.41-.26,0-.9-.38-.65Z" transform="translate(-133.04 -19.98)"/><path d="M220.41,96.5c4.83,1.45,11,7.57,15.88,2.74.35-.34-.18-.87-.53-.53-4.53,4.5-10.58-1.56-15.15-2.94a.38.38,0,0,0-.2.73Z" transform="translate(-133.04 -19.98)"/><path d="M228.35,113.84c3,1.82,6.19,2,6.92-2a8.89,8.89,0,0,0-.23-5.28c-1.07-2.33-3.55-4.22-5.27-6.06-.33-.36-.86.18-.53.53,1.65,1.76,4.71,4.15,5.39,6.57a9.18,9.18,0,0,1-.09,4c-.9,3.09-3.72,2.86-5.81,1.57-.41-.26-.79.39-.38.65Z" transform="translate(-133.04 -19.98)"/><path d="M223.68,88.22c-2.76-1.06-8.78-3.07-11.68-1.41-2.38,1.35-2.4,6.07-2.59,8.4,0,.48.71.48.75,0a27,27,0,0,1,.77-4.9c.59-2.14,1.34-2.9,3.69-3.12,2.94-.27,6.15.71,8.86,1.75.45.18.65-.55.2-.72Z" transform="translate(-133.04 -19.98)"/><path d="M209.49,94.77c3,3.33,5.88,6.74,8.93,10,2.73,2.92,6.85,5,9,8.32.27.41.92,0,.65-.38-2-3.18-5.64-4.9-8.27-7.57-3.42-3.46-6.54-7.26-9.78-10.89-.32-.36-.85.17-.53.53Z" transform="translate(-133.04 -19.98)"/><path d="M208.84,95.18a5.34,5.34,0,0,0-6.08,1.9c-1.78,2.22-1.9,5.27-2,8,0,.48.73.48.75,0,.08-2.21.13-4.64,1.25-6.61s3.51-3.5,5.88-2.54c.45.17.64-.55.2-.73Z" transform="translate(-133.04 -19.98)"/><path d="M200.65,106c4,4.35,7.89,9.2,12.53,12.94,3,2.46,7.42,6,11.56,5.41.47-.06.48-.81,0-.75-5,.65-11.13-5-14.36-8.25s-6.15-6.58-9.2-9.88c-.33-.36-.86.17-.53.53Z" transform="translate(-133.04 -19.98)"/><path d="M225.43,124.54a6,6,0,0,0,4.41-6c-.14-1.44-.91-2-1.93-2.91a21.15,21.15,0,0,1-4.22-6.47c-.21-.43-.86-.05-.65.38a25.19,25.19,0,0,0,3.38,5.64c1.29,1.48,3,2,2.58,4.58a5.23,5.23,0,0,1-3.77,4.1.37.37,0,0,0,.2.72Z" transform="translate(-133.04 -19.98)"/><path d="M200.66,104.35a6.2,6.2,0,0,0-6.86,4.18c-.69,1.77-1.67,6.36.95,7a.37.37,0,0,0,.2-.72c-2.14-.56-.79-5.4-.23-6.57a5.31,5.31,0,0,1,5.75-3.21c.47.09.67-.63.19-.73Z" transform="translate(-133.04 -19.98)"/><path d="M195.16,115.75c2.87,2.27,5.92,4.29,8.17,7.17a20.36,20.36,0,0,0,3.61,3.37c3.74,3.14,3.79,5.94,9.08,6.79,2.95.47,5.26.65,5.88-2.61.84-4.41-3.12-5.94-5.31-9.18-.27-.39-.92,0-.65.38,1.43,2.12,5.42,4.6,5.32,7.4-.16,4.45-4.51,3.71-6.94,2.87-2.92-1-3.33-2.87-5-4.53a164.91,164.91,0,0,0-13.6-12.19c-.37-.29-.91.23-.53.53Z" transform="translate(-133.04 -19.98)"/><path d="M192.94,114.39c-2.86-.77-5.12.77-6,3.62-1.15,3.9.54,6.65,3.48,9.1,3.67,3.06,16.12,9.92,18.77,2.36.16-.46-.56-.66-.72-.2-2,5.71-11.77,1.18-14.85-.75a23.08,23.08,0,0,1-4.19-3.3,5.62,5.62,0,0,1-2.08-4.65c-.21-3.12,1.57-4.93,5.35-5.45a.38.38,0,0,0,.2-.73Z" transform="translate(-133.04 -19.98)"/><path d="M201.41,151.89c2.53-3.21,6-5.6,8.79-8.65,3.19-3.54,6.36-7.1,9.41-10.76.31-.37-.22-.9-.53-.53-3.05,3.66-6.22,7.22-9.41,10.76-2.75,3-6.26,5.45-8.79,8.65-.29.38.23.91.53.53Z" transform="translate(-133.04 -19.98)"/><path d="M200.58,152.46c4,4,9,6.64,13.77,9.69a181.09,181.09,0,0,1,16.57,12,164.56,164.56,0,0,1,13.9,12.63c3.69,3.79,5.34,8.64,9.74,11.75.4.27.77-.38.38-.65-4.61-3.25-6.82-8.91-10.85-12.9a180.41,180.41,0,0,0-14-12.48Q223.73,167.45,217,163c-5.37-3.56-11.26-6.47-15.87-11a.38.38,0,0,0-.53.53Z" transform="translate(-133.04 -19.98)"/><path d="M361.3,215.3c-10.68-4-20.66-8.4-30.18-14.74s-18.66-13.12-27.94-19.72c-9-6.41-18.12-12.7-27-19.31-9.13-6.8-19.32-14.6-24.84-24.79-.23-.42-.88-.05-.65.38,4.92,9.07,13.5,16.11,21.53,22.34,9.39,7.3,19.27,14,29,20.89s19.51,14.19,29.54,20.86c9.6,6.39,19.61,10.77,30.36,14.81.45.17.65-.56.2-.72Z" transform="translate(-133.04 -19.98)"/><path d="M134.86,184.66c.78-3.39,5-6.56,7.33-8.92q3.31-3.28,6.67-6.54,7-6.81,14.29-13.44,14.13-12.91,29-25c.75-.61-.32-1.67-1.06-1.06Q174.81,143,159.34,157.23q-7.54,7-14.89,14.17c-3.64,3.57-9.85,7.68-11,12.86-.22.94,1.23,1.34,1.44.4Z" transform="translate(-133.04 -19.98)"/><path d="M134.15,185.1c-1.11,3.36,1.92,5.85,4.11,7.94a25.71,25.71,0,0,0,10.31,6.14c.92.28,1.32-1.17.4-1.45a23.15,23.15,0,0,1-8.35-4.55c-2-1.73-6-4.73-5-7.68.3-.92-1.15-1.32-1.45-.4Z" transform="translate(-133.04 -19.98)"/><path d="M215.39,134.06c-10.27,11.89-20.75,23.09-33.8,32-.8.54-.05,1.84.75,1.29,13.15-9,23.76-20.26,34.11-32.25.63-.73-.43-1.8-1.06-1.06Z" transform="translate(-133.04 -19.98)"/><path d="M181.36,166.68,148.52,198c-.7.67.36,1.73,1.06,1.06l32.84-31.36c.7-.67-.36-1.73-1.06-1.06Z" transform="translate(-133.04 -19.98)"/><path d="M277.15,75.72,252.42,96.84c-.73.63.33,1.68,1.06,1.06l24.73-21.12c.73-.63-.33-1.69-1.06-1.06Z" transform="translate(-133.04 -19.98)"/><path d="M241.16,86.14c4.81-3.56,8.41-8.12,12.17-12.73s8.65-8.36,11.4-13.54c4.12-7.73,2.39-20.13-8.34-20.15a.75.75,0,0,0,0,1.5c8.16,0,10.28,8.48,8.3,14.93-1.47,4.76-5,7.86-8.26,11.36-5.4,5.78-9.59,12.58-16,17.34-.77.57,0,1.87.75,1.29Z" transform="translate(-133.04 -19.98)"/><path d="M281.63,41.78c6.32,9.4,17,15.57,17.95,27.91s-2.54,25.45-6.81,36.88c-.34.9,1.11,1.29,1.44.39,4.42-11.8,8.36-26.22,6.7-39-1.54-11.77-11.84-17.83-18-27-.54-.8-1.84-.05-1.3.76Z" transform="translate(-133.04 -19.98)"/><path d="M292.82,106.42C291.75,100.19,292,94,292,87.66c0-4.55.45-11-1.8-15.19-3.93-7.27-10.34.4-14.21,3.5-.75.6.32,1.66,1.06,1.06,1.34-1.08,2.65-2.31,4.07-3.27,3.27-2.19,6.17-4.51,8.27.69,1.44,3.59,1.08,8.47,1.11,12.3.06,6.74-.22,13.4.92,20.07.17,1,1.61.54,1.45-.4Z" transform="translate(-133.04 -19.98)"/><path d="M260.93,63.82c1.74,2.33,3.37,4.91,5.56,6.86,2.56,2.27,5.41,4.26,8.1,6.37.76.59,1.83-.47,1.07-1.06-2.47-1.92-5-3.79-7.39-5.78s-4.17-4.64-6-7.15c-.57-.76-1.88,0-1.3.76Z" transform="translate(-133.04 -19.98)"/><path class="cls-1" d="M186.51,216.28" transform="translate(-133.04 -19.98)"/><path d="M256.63,39.84l-6-8c-.58-.76-1.88,0-1.3.76l6,8c.58.76,1.88,0,1.3-.76Z" transform="translate(-133.04 -19.98)"/><path d="M250.35,32.5a108.35,108.35,0,0,1,11.92-11c.76-.58,0-1.88-.76-1.3a113.51,113.51,0,0,0-12.22,11.29c-.68.69.38,1.76,1.06,1.06Z" transform="translate(-133.04 -19.98)"/><path d="M261.88,21.4c2.88,1.79,4.61,5,6.48,7.7.55.79,1.85,0,1.3-.75-2-3-3.91-6.3-7-8.25-.82-.51-1.58.78-.76,1.3Z" transform="translate(-133.04 -19.98)"/><path d="M268.33,28.79c-1.07,7.64,7,12.53,13.66,12.87,1,.05,1-1.45,0-1.5-5.59-.29-13.13-4.38-12.22-11,.13-.94-1.31-1.35-1.44-.4Z" transform="translate(-133.04 -19.98)"/><path class="cls-1" d="M97.29,178" transform="translate(-133.04 -19.98)"/><path class="cls-1" d="M344.82,172.46c-9.05,5-13.57,7.55-17.17,8.42-2.3.55-3.27.51-7.18,1.49-4.3,1.08-4.94,1.58-7.23,1.67-3.44.12-3.9-.95-6.59-.45a12,12,0,0,0-5.67,2.94c-2.24,1.92-1.57,2.55-4.92,6.5-2.24,2.63-2.74,2.59-4,4.6-1.08,1.71-1.25,2.59-2.31,3.22-1.95,1.16-4.59.07-5.09-.14-4.79-2-3-7.12-8.88-10.85-2.24-1.42-4.76-2.26-5.53-4.78-.52-1.7.14-2.93-.92-4.74s-2.48-2.06-2.35-2.85c.16-.94,2.33-1,4.4-1.75,3.56-1.21,5.34-3.72,6.9-5.35,4.28-4.47,10.41-6,15.34-7.86,9.55-3.68,12-8.28,27.83-18.3,25.26-15.93,32.8-17.92,36.32-18.08a11,11,0,0,1,1.18,0c4,.17,6.58,2,10,3.71,3.94,1.95,3.69,1.09,6.59,2.64,5.7,3,11.4,8.86,10.18,11.61-.53,1.19-2.32,1.75-3.67,1.68-3.64-.2-4.31-5.09-8.84-6.08-2-.42-4.11,0-4.33.77-.35,1.28,5,2.33,8.22,7.47.75,1.19,2.46,4,1.46,6.63a3.38,3.38,0,0,1-1.75,2.16c-1.89.63-3.8-2.2-8.63-6.27-3.27-2.77-5.23-4.28-8.06-5.15a16.61,16.61,0,0,0-12.23,1.39c-4.38,2.58-8.29,8-6.86,10.63,1.1,2,5,1.7,11.39,1.22,3.61-.27,4.42-.77,4.74-1.42,1.08-2.16-3.13-6.25-3.37-6.48-3-2.87-5.49-2.92-5.45-3.92.08-1.77,8.12-4.63,11.78-1.42,2.66,2.33,2.64,7.51,2.63,7.92,0,2.42-.78,4.06.35,5.64a11.9,11.9,0,0,0,2.4,2.14c1.46,1.08,2.19,1.62,2.37,2.28.33,1.16-.63,2.55-1.47,3.32-1.64,1.49-3.36,1.1-9.11,1.82-2,.24-3,.37-4.23.64A28.6,28.6,0,0,0,344.82,172.46Z" transform="translate(-133.04 -19.98)"/><path class="cls-4" d="M284.65,200.71c.59.27,1.2.41,1.4.95.53,1.46-2.77,3.73-5.05,5.66-3.36,2.87-3.29,4-8.52,10.72a183.07,183.07,0,0,1-12.59,14.35c-2.83,2.87-8.74,8.87-15.35,13.22-11.3,7.44-31.29,14.43-46.69,6.53-6.47-3.32-12.93-9.69-11.73-13.63,1.06-3.47,7.15-2.08,17.55-7.83,2.73-1.51,2.41-1.66,12.86-9.06,5.29-3.74,6.13-4.24,11.59-8.05,0,0,11.41-8,31.86-24.7,3.72-3.05,5.24-4.44,6.31-6.82.61-1.35.94-2.7,1.67-2.76,1-.07,1.5,2.57,3.23,5.27,2.84,4.42,5.17,2.85,7.95,6.86S281.38,199.24,284.65,200.71Z" transform="translate(-133.04 -19.98)"/><path d="M291.73,197.44c-1.68,3-6.09,3.58-8,1-.83-1.09-1.08-2.69-1.74-3.91a12.06,12.06,0,0,0-3.55-4c-2.25-1.73-5.06-2.78-6.88-5s-1.84-5.55-3.55-8.08c-.26-.4-.91,0-.64.38,2.31,3.42,1.79,7,5.22,9.77s7.23,4.17,9.25,8.45c1.13,2.39,1.78,5.64,4.89,5.93,2.72.25,4.51-2,5.69-4.11.23-.42-.42-.8-.65-.38Z" transform="translate(-133.04 -19.98)"/><path d="M291.57,196.63l-2.18.13c-.48,0-.48.78,0,.75l2.18-.13c.48,0,.48-.77,0-.75Z" transform="translate(-133.04 -19.98)"/><path d="M291.74,197c3.12-2.22,6.15-4.64,8.08-7.94a4.09,4.09,0,0,1,2.56-3,9.55,9.55,0,0,1,2.37-.34,2.84,2.84,0,0,0,1-.3,1.47,1.47,0,0,0,.58-1.92c-.17-.45-.9-.26-.73.2.37,1-3.67,1.64-4.28,2a4.27,4.27,0,0,0-1.8,1.77,16.76,16.76,0,0,1-2.94,4.51,42.93,42.93,0,0,1-5.26,4.35c-.39.28,0,.93.38.65Z" transform="translate(-133.04 -19.98)"/><path d="M306,183c-3.94.66-7.44-3.66-9.05-6.67-.23-.43-.88,0-.65.38,1.81,3.39,5.57,7.74,9.89,7,.48-.08.28-.8-.19-.72Z" transform="translate(-133.04 -19.98)"/><path d="M294.18,163.34a9.83,9.83,0,0,0,3.08,7.71c.35.33.88-.2.53-.53a9.07,9.07,0,0,1-2.86-7.18c0-.48-.72-.48-.75,0Z" transform="translate(-133.04 -19.98)"/><path d="M267.66,177.91c3.66-1.46,6.45-4.69,9.91-6.65,4.32-2.46,8.82-4.64,13.24-6.94.43-.22.05-.87-.38-.65-4,2.07-8,4.07-11.92,6.22-3.66,2-7.26,5.78-11.05,7.29-.44.18-.25.9.2.73Z" transform="translate(-133.04 -19.98)"/><path d="M289.16,164.22a9.26,9.26,0,0,0-.26,5.34c.11.47.84.27.72-.2a8.58,8.58,0,0,1,.26-4.94c.16-.46-.56-.65-.72-.2Z" transform="translate(-133.04 -19.98)"/><path d="M291,164.45c5.23-2.21,10-5.3,14.73-8.32,5.31-3.34,11-6.41,15.93-10.29,10.37-8.17,22.81-13.75,34.93-18.89.44-.19.06-.84-.38-.65-10.67,4.53-22.54,9.3-31.86,16.31-10.29,7.73-21.61,16.08-33.55,21.12-.44.18-.25.91.2.72Z" transform="translate(-133.04 -19.98)"/><path d="M306.38,183.85c1.31,1.59,3.54.64,5.36.52a47.37,47.37,0,0,0,11.15-2.08c8.46-2.62,15.55-5.13,22.87-10.11,4.62-3.15,9.16-3.39,14.52-4.1,1.88-.24,4.68-.33,6.14-1.82,3.07-3.12-.66-5.79-3.56-6.91-.45-.18-.65.55-.2.72l2.15.94q1.41,5.66-2.23,6a20.08,20.08,0,0,1-4.72.6,47.31,47.31,0,0,0-5.68.79c-4.84,1.16-8.2,4.6-12.41,7-4.94,2.82-10.76,4.2-16.15,5.9-3.25,1-6.57,2.17-10,2.35-.95,0-6.07.47-6.7-.3-.31-.37-.84.16-.54.53Z" transform="translate(-133.04 -19.98)"/><path d="M339.82,157.78c4.83,3.24,12.31,1.11,17.46-.27a.37.37,0,0,0-.2-.72c-5,1.32-12.26,3.44-16.88.34-.4-.27-.78.38-.38.65Z" transform="translate(-133.04 -19.98)"/><path d="M340.45,157.24c1.64-4.07,4.68-7.2,7.73-10.25.34-.35-.19-.88-.53-.53-3.16,3.16-6.23,6.38-7.92,10.58-.18.45.54.64.72.2Z" transform="translate(-133.04 -19.98)"/><path d="M351.44,148.49a31.73,31.73,0,0,1,5.12,7,6.67,6.67,0,0,0,2.58,3c2.69,1.39,4.3-.52,4.14-3.12-.26-4-2-9.3-5.25-11.77-3.53-2.67-8.22-4.35-12.15-6.3-.43-.21-.81.44-.38.65,5.08,2.51,12.79,4.79,15.11,10.41a14.91,14.91,0,0,1,1.31,4.72c1,2.26-.44,3.16-4.37,2.7-.24-.46-.47-.92-.69-1.39A47.66,47.66,0,0,0,352,148c-.33-.35-.86.18-.53.53Z" transform="translate(-133.04 -19.98)"/><path d="M345.69,137.28c-3.62-.12-7.08,1.84-10.68,2.24-.48,0-.48.8,0,.75a28.85,28.85,0,0,0,4.68-.9c2-.59,3.86-1.41,6-1.34.48,0,.48-.73,0-.75Z" transform="translate(-133.04 -19.98)"/><path d="M358.67,144.67c1.51.52,2.9,1.69,4.3,2.4a21.17,21.17,0,0,1,5.74,4.51c2.37,2.42,4.59,4.83,8,5.53.47.09.68-.63.2-.73-4.79-1-7.71-5.67-11.09-8.8a6.25,6.25,0,0,0-2.58-1.4c-1.52-.64-2.81-1.68-4.39-2.23-.45-.16-.65.57-.2.72Z" transform="translate(-133.04 -19.98)"/><path d="M377.25,156.79c5.24-2.25-.42-8.64-2.42-11.22-4.62-5.95-12.21-10.18-19.18-12.76-.45-.17-.65.56-.2.73a57.9,57.9,0,0,1,14.48,8.15c2,1.53,12.44,12.09,6.94,14.45-.45.19-.06.84.38.65Z" transform="translate(-133.04 -19.98)"/><path d="M366.86,139.36a7,7,0,0,0,2.66.61c.88,0,1.72-.08,2.61,0,1.88.23,3.13,1.42,4.52,2.61,1.68,1.43,3.94,4.12,6.46,3.81,4.64-.57,3-6.15,1-8.44-.32-.36-.85.17-.53.53.77.88,2.68,3.54,1.86,4.91l-4.5,1.65L379,143.66c-1.22-1-2.27-2.24-3.53-3.16-2.67-1.95-5.3-.54-8.2-1.78-.44-.19-.82.45-.38.64Z" transform="translate(-133.04 -19.98)"/><path d="M383.92,138.27c-3.53-4.8-9-6.06-14.27-8.22-3.94-1.61-10.11-6.25-14.39-3.54-.4.26,0,.9.38.65,4.09-2.6,10.74,2.44,14.54,3.93,4.88,1.91,9.83,3.12,13.1,7.56.28.38.93,0,.64-.38Z" transform="translate(-133.04 -19.98)"/><path d="M339.53,157.14c-.51,6.56-.66,13.27-5.11,18.43-.31.36.22.9.53.53,4.59-5.33,4.8-12.18,5.33-19,0-.48-.71-.48-.75,0Z" transform="translate(-133.04 -19.98)"/><path d="M348.26,147.12a10.77,10.77,0,0,1,3.26,1.42c.4.27.78-.38.38-.64a11.38,11.38,0,0,0-3.44-1.51.38.38,0,0,0-.2.73Z" transform="translate(-133.04 -19.98)"/><path d="M347.9,146.09a16.83,16.83,0,0,0-6.36,1.31,22.69,22.69,0,0,0-5.25,2.34c-.39.27,0,.92.38.65a21.56,21.56,0,0,1,11.23-3.55c.49,0,.49-.73,0-.75Z" transform="translate(-133.04 -19.98)"/><line class="cls-5" x1="226.74" y1="142.88" x2="224.6" y2="139.69"/><line class="cls-5" x1="227.56" y1="138.81" x2="226.9" y2="143.37"/><line class="cls-5" x1="229.56" y1="137.81" x2="236.61" y2="131.66"/><line class="cls-5" x1="230.39" y1="134.51" x2="235.16" y2="130.49"/><line class="cls-5" x1="242.57" y1="126.74" x2="245.87" y2="123.78"/><line class="cls-5" x1="241.4" y1="125.7" x2="244.69" y2="122.59"/><line class="cls-5" x1="250.24" y1="117.7" x2="252.75" y2="115.47"/><line class="cls-5" x1="251.41" y1="118.74" x2="253.6" y2="116.79"/><line class="cls-6" x1="250.32" y1="113" x2="256.5" y2="119.88"/><line class="cls-5" x1="275.69" y1="88.19" x2="281.87" y2="95.07"/><line class="cls-5" x1="250.32" y1="113" x2="275.69" y2="88.19"/><line class="cls-5" x1="256.5" y1="119.88" x2="281.79" y2="94.94"/><line class="cls-5" x1="278.95" y1="91.67" x2="282.8" y2="88.02"/><line class="cls-5" x1="280.29" y1="93.16" x2="284.14" y2="89.5"/><line class="cls-5" x1="282.8" y1="88.02" x2="284.14" y2="89.5"/><line class="cls-5" x1="283.56" y1="88.6" x2="298.6" y2="72.92"/><path d="M186.22,238.87c7.76-3,15-6.23,22-10.88,7.66-5.14,15-10.78,22.47-16.22,7-5.09,14.11-10.07,20.94-15.4,6.44-5,13.3-10.64,17.22-18,.22-.42-.42-.8-.65-.38-4.13,7.7-11.59,13.6-18.42,18.82s-14,10.28-21,15.4-13.79,10.3-20.92,15.08c-6.89,4.61-14.11,7.82-21.81,10.81-.44.17-.25.9.2.72Z" transform="translate(-133.04 -19.98)"/><path d="M285.78,201.39c-13.29,14.78-24.33,33.49-42.11,43.37-.43.24,0,.88.38.65,17.85-9.92,28.93-28.66,42.26-43.49.32-.36-.2-.89-.53-.53Z" transform="translate(-133.04 -19.98)"/><path class="cls-1" d="M358.87,156.74l.63.26.27.11a.44.44,0,0,1-.19-.12l-.38-.66c1.42-.52,1.85-1,1.27-1.31a1.53,1.53,0,0,1-.21-.14,1.5,1.5,0,0,0-2.05.53,1.54,1.54,0,0,0,.53,2.06,2.38,2.38,0,0,0,2,.47,2,2,0,0,0,1.42-1.39,1.87,1.87,0,0,0-.81-2,12.14,12.14,0,0,0-1.66-.7,1.5,1.5,0,0,0-1.84,1,1.55,1.55,0,0,0,1.05,1.85Z" transform="translate(-133.04 -19.98)"/><path class="cls-1" d="M359.52,155.67c.2.19,0-.08-.06-.16.12.25,0-.13,0,0s.1-.28,0,0c0-.09.25-.36.05-.17a1.5,1.5,0,0,0,2.12,2.12,2.78,2.78,0,0,0,0-3.95,1.5,1.5,0,0,0-2.12,2.12Z" transform="translate(-133.04 -19.98)"/><path class="cls-1" d="M288.31,197.67c-.75.83-1.65.15-2.23-.53-1.26-1.47-3.37.66-2.12,2.12,1.64,1.92,4.63,2.57,6.47.54,1.29-1.44-.82-3.56-2.12-2.13Z" transform="translate(-133.04 -19.98)"/><path class="cls-1" d="M379.38,142.49a4.56,4.56,0,0,0,3.06,3.1c1.72.37,3.63-1.11,3-3a1.53,1.53,0,0,0-1.85-1,1.51,1.51,0,0,0-1,1.84.8.8,0,0,1,.17-.58.52.52,0,0,1,.42-.16,3.18,3.18,0,0,1-.31-.18,1.73,1.73,0,0,1-.55-.81,1.54,1.54,0,0,0-1.85-1,1.52,1.52,0,0,0-1.05,1.84Z" transform="translate(-133.04 -19.98)"/><path class="cls-1" d="M364.56,166a3.88,3.88,0,0,0,1.28-3,3,3,0,0,0-2-2.68,1.5,1.5,0,0,0-1.84,1.05,1.52,1.52,0,0,0,1,1.84c-.22-.08-.09-.12-.15,0a1.65,1.65,0,0,1-.41.6c-1.38,1.36.74,3.48,2.12,2.12Z" transform="translate(-133.04 -19.98)"/></svg>