<svg id="Lag_1" data-name="Lag 1" xmlns="http://www.w3.org/2000/svg" viewBox="0 0 186.91 198.31"><defs><style>.cls-1,.cls-3{fill:#fff;}.cls-2{fill:none;stroke-width:0.25px;}.cls-2,.cls-3{stroke:#000;stroke-miterlimit:10;}</style></defs><title>enjord</title><path d="M290.73,99.13c-.82-17-7.05-34.7-22.75-43.33-16.29-9-35.79-6.13-51.75,2.05C209,61.56,200,66.29,197.15,74.47s-.79,18.2,1.68,26.26c5.86,19,18.09,37.1,29.77,53.05,6.9,9.42,15.61,16.59,23.68,24.91,9.22,9.51,18.26,19.2,27.38,28.81,1.33,1.4,3.45-.73,2.12-2.13-13.09-13.78-26.22-27.37-39.85-40.6-12.86-12.49-22.78-29.32-31.41-44.92C206.18,112,202.44,103.78,200.4,95c-2.08-8.94-3.26-19.77,4.41-26.41,13.5-11.71,34.29-18.45,51.84-14,20.83,5.23,30.11,24.51,31.08,44.55.09,1.92,3.09,1.93,3,0Z" transform="translate(-195.74 -50.24)"/><path d="M290.73,99.13c.84-17.33,7.68-35.07,24.6-42.36,17.4-7.49,36.75-2.16,52.13,7.51,3.64,2.29,7.65,4.76,9.86,8.59,2.45,4.25,2.53,9.45,2.08,14.19-.88,9.33-4.14,18.35-8.26,26.7a238.82,238.82,0,0,1-13.5,23c-5,7.85-10.06,15.77-16.2,22.82-6.71,7.68-14.73,14.17-21.76,21.57q-11.51,12.11-23,24.2c-1.33,1.4.79,3.53,2.12,2.13l23.66-24.9c7.62-8,16.39-15,23.38-23.59C352.22,151.15,357.6,142.5,363,134c5.27-8.35,10.31-16.88,14-26,3.58-8.75,6.54-19,5.35-28.59-1.07-8.55-6.48-13.27-13.42-17.63-15.68-9.86-35.26-15.23-53.18-8.35-19.08,7.32-27.13,26.56-28.06,45.79-.09,1.93,2.91,1.93,3,0Z" transform="translate(-195.74 -50.24)"/><path d="M279.48,206.82l11.45,10c1.44,1.26,3.57-.85,2.12-2.12l-11.45-10c-1.45-1.26-3.58.85-2.12,2.12Z" transform="translate(-195.74 -50.24)"/><path d="M297.29,205.25a62.46,62.46,0,0,0-12.6,13.32c-1.11,1.59,1.49,3.09,2.59,1.52a59.76,59.76,0,0,1,12.13-12.72c1.52-1.19-.61-3.3-2.12-2.12Z" transform="translate(-195.74 -50.24)"/><ellipse class="cls-1" cx="86.87" cy="91.72" rx="34.33" ry="32.94"/><path d="M283.66,109.21c-14.16-2.19-29.16,5.11-35.12,18.44-5.85,13.08-1.61,29.68,9.67,38.47,12,9.37,32.88,12.89,46.2,4.42,11.16-7.11,17-21.55,14.21-34.44-3.53-16.41-19.9-27.34-36.17-27.15-1.93,0-1.93,3,0,3,16.39-.19,32.91,12,33.83,29.13a29.29,29.29,0,0,1-30.52,31.1c-18.32-.51-36.58-11.53-36.85-31.51-.24-17.78,16.66-31.24,34-28.56,1.89.29,2.7-2.6.79-2.9Z" transform="translate(-195.74 -50.24)"/><path d="M282,145.8c-.23,2.08.92,2.81,1.79,4.4a17.47,17.47,0,0,0,3.89,5.37c1.28,1.24,1.48,1.3,3.7,1.3a10.35,10.35,0,0,1,2.72,0l4.47,4.4-.12,1.59c.34,2.18.41,4.28.85,6.46.09.48.81.28.72-.19-1.12-5.62,1.22-12.89-6.6-13-2.62,0-3.63.17-5.38-1.88-.37-.44-.64-1-1.1-1.53a11.88,11.88,0,0,1-2.1-3,32.77,32.77,0,0,0-2.09-3.89c.06-.48-.69-.48-.75,0Z" transform="translate(-195.74 -50.24)"/><path d="M312.78,156.26c.17-2.13,1-5.23.05-7.24-.63-1.33-2.36-2.45-1.8-4.16s2.84-1.58,4.52-1.64a.38.38,0,0,0,0-.75c-2.75.09-5.34-.5-5.36,3.05a3.67,3.67,0,0,0,1,2.46c1.77,2.5,1.11,5.36.88,8.28,0,.48.71.48.75,0Z" transform="translate(-195.74 -50.24)"/><path d="M282.55,145.85c-.91-5.16,3-5.1,5.4-7.28.92-.85.92-1.47,1.69-2.27,2.45-2.54,5.67-.82,8.92-1.52,2.4-.52,3.64-1.17,6.14,0,1.84.89,3.62,3.94,5.71,4.22,1.91.26,2.89-1,3.92-2.44.28-.39-.37-.77-.65-.37-3.11,4.42-9.4-4-13.23-3.51-1.89.22-3.47,1.52-5.41,1.57-2.3.05-3.89-.52-6.1.34a.38.38,0,0,0-.26.46c.81,4.1-4.64,3.93-6.23,5.93-1.22,1.52-.94,3.23-.62,5,.09.48.81.28.72-.2Z" transform="translate(-195.74 -50.24)"/><path d="M293.64,118c-2.33-3.39-6.11-8.28-9.51-3.17-.56.83-1.41,2.17-.44,3.11,1.43,1.39,1.1-.55,2.17-.28,1.29.32,1.87.84,1.27,2a1.79,1.79,0,0,0-.75-.24c-.87,1-.74,2.38-1.51,3.33-1.39,1.73-4.57,0-6.53,1.89a8,8,0,0,0-1.83,6.1.39.39,0,0,0,.27.36c2,.6,2.59,2.6,4.25,3.24.38.15.77-.15,1.16-.16a40.18,40.18,0,0,0,4.19-1.13c1-.23,1.3,0,2.23-.63,1.2-.81.84-2,2.51-1.66,1.42.28,1.11,1.8,2.62,1.69a.41.41,0,0,0,.37-.28c1.17-3.84,6.3-2.84,9.28-2.16a.4.4,0,0,0,.43-.18c1.07-1.6,7.71,2.8,9.87,2.59.48,0,.48-.8,0-.75-3.62.36-5.63-4.61-9.06-3.8-.8.19-1.45,1-2.28,1.14-2.11.48-4.05-1.6-6-1.4-1.25.13-1-.08-2,.64-.4.28-.43,1.47-.62,1.5-1.23.21-.53-1.49-2.36-1.36-.47,0-.89.58-1.28.77l-.6,1-3.92,2c.51-.1-1.64-.18-1.67-.18-.41.07-1.44.76-1.61.75-1.65,0-1.58-1.19-2.59-1.78a7.49,7.49,0,0,1-1.06-.47,2,2,0,0,1-1.36-.28l.43-2.71,5.67-3,.73.25c.26-.2.82-.3,1.13-.59.12-.11,1-4.46,1.8-3.47a.39.39,0,0,0,.43.17c1.89-.75.79-3.4-.11-4.64a.38.38,0,0,0-.42-.18c.82-.26-1.1.26-1,.42Q284,112,290,114.65a23.63,23.63,0,0,1,3,3.76c.27.4.92,0,.64-.38Z" transform="translate(-195.74 -50.24)"/><path d="M293.1,118.45a10.09,10.09,0,0,0,3.42-.34,2.59,2.59,0,0,0,.82-.34c.26-.18.7-1.14,1-1.09.47.09.67-.63.2-.72-.77-.14-.94.29-1.35.84-.78,1.06-2.89,1-4.07.9-.48,0-.48.73,0,.75Z" transform="translate(-195.74 -50.24)"/><path d="M258.11,147.58a8.88,8.88,0,0,0-1.18-3.12c.3.4-2.08-2.17-1.83-1.54-1.92-4.8,8.51-4.8,10.71-6,1.81-1,2-2,2.61-4.21,1.12-3.77-.95-2-.77-6.39,0-.49-.72-.49-.75,0-.1,2.32,1.36,3.92.8,6.19-.73,3-2.32,3.68-4.95,4.35-2.14.54-4.26,1.19-6.34,1.93-7.18,2.55-.26,4.26,1,9a.37.37,0,0,0,.72-.2Z" transform="translate(-195.74 -50.24)"/><path d="M267.52,125.8a49.53,49.53,0,0,0,1.91-6.29c.4-2.08,0-4.17.38-6.23.08-.47-.64-.68-.72-.2-.36,2.07,0,4.14-.38,6.23a48,48,0,0,1-1.91,6.29c-.16.46.57.66.72.2Z" transform="translate(-195.74 -50.24)"/><path d="M251,146.07a21.85,21.85,0,0,0,2.34,1.85c1.58,1.14,2.33,2.13,2.2,4.13-.15,2.19-1.28,3.92-1.19,6.15,0,.48.77.48.75,0-.1-2.63,1.56-4.94,1.22-7.65s-3.08-3.36-4.79-5a.38.38,0,0,0-.53.53Z" transform="translate(-195.74 -50.24)"/><path d="M257.25,148c3.72.08,3.88.72,7.28,3,1.64,1.11,0,.94,2.15,1.48,1.62.42,1.33-.46,2.86-.37q4-2.06,3.88,5.38a3.51,3.51,0,0,0-.39.61c-.63,3,.17,4.46.3,7.74.09,2.25-.3,3.4,1.2,5.25.3.38.83-.15.53-.53-1.18-1.45-1.23-5.06-1.32-7a19,19,0,0,1,1.05-6.57c.16-.41.68-.71.78-1.16.35-1.63.44-3.39-1.06-4.53a3.61,3.61,0,0,0-2.47-.66c-.71,0-1.38.46-2.06.51a11.84,11.84,0,0,1-5.58-1.67,12.29,12.29,0,0,0-7.15-2.27.38.38,0,0,0,0,.75Z" transform="translate(-195.74 -50.24)"/><path d="M270.52,116.19c0-.76,1.78-1.49,2.33-1.82l2.48-1.5a.38.38,0,0,0-.38-.65l-3.63,2.2c-.7.42-1.61.83-1.55,1.77,0,.48.78.48.75,0Z" transform="translate(-195.74 -50.24)"/><path d="M270.07,117.54q4-2,8-4.28a.37.37,0,0,0-.38-.64q-3.93,2.23-8,4.27c-.43.22-.05.86.38.65Z" transform="translate(-195.74 -50.24)"/><path d="M270.19,120.05l9.23-5.52a.38.38,0,0,0-.38-.65l-9.23,5.52a.38.38,0,0,0,.38.65Z" transform="translate(-195.74 -50.24)"/><path d="M271.65,120.7a12.48,12.48,0,0,0,4.06-1.79l5.36-2.89c.43-.23.05-.88-.37-.65l-4.11,2.21c-1.46.78-3.3,2.15-4.94,2.37-.48.06-.48.81,0,.75Z" transform="translate(-195.74 -50.24)"/><path d="M274.62,122.2a24.92,24.92,0,0,1,6.52-4.08c.44-.19.06-.83-.38-.65a25.89,25.89,0,0,0-6.67,4.2c-.37.32.16.85.53.53Z" transform="translate(-195.74 -50.24)"/><path d="M271.43,125.13c4-1.31,6.5-5,10.42-6.51.45-.16.25-.89-.2-.72-3.92,1.47-6.43,5.2-10.42,6.5-.46.15-.27.88.2.73Z" transform="translate(-195.74 -50.24)"/><path d="M270.5,130.09a51.62,51.62,0,0,0,4.73-3.33c.37-.3-.16-.83-.53-.53a50.25,50.25,0,0,1-4.58,3.22c-.4.25,0,.9.38.64Z" transform="translate(-195.74 -50.24)"/><path d="M269.41,133.84l6.06-3.81c.41-.26,0-.91-.37-.65L269,133.2c-.41.25,0,.9.38.64Z" transform="translate(-195.74 -50.24)"/><path d="M262.53,140.51c2.17-1.49,4.32-3,6.54-4.47s4.64-1.75,6.77-3.07c.41-.25,0-.9-.38-.65-2.13,1.32-4.63,1.72-6.76,3.08s-4.37,3-6.55,4.46c-.4.27,0,.92.38.65Z" transform="translate(-195.74 -50.24)"/><path d="M262.48,142.84a76.44,76.44,0,0,0,16-8.27c.4-.27,0-.92-.38-.65a75.29,75.29,0,0,1-15.84,8.2c-.44.16-.25.89.2.72Z" transform="translate(-195.74 -50.24)"/><path d="M263.68,145.69c6.51-1.83,11.94-6,18.28-8.28.45-.16.26-.88-.2-.72-6.34,2.24-11.77,6.45-18.27,8.28a.37.37,0,0,0,.19.72Z" transform="translate(-195.74 -50.24)"/><path d="M266.87,148.35a62.37,62.37,0,0,1,12.76-5.13.38.38,0,0,0-.2-.73,63.93,63.93,0,0,0-12.94,5.21c-.43.23-.05.87.38.65Z" transform="translate(-195.74 -50.24)"/><path d="M275.81,150.13a56.75,56.75,0,0,1,6.38-3.32c.44-.2.06-.84-.38-.65a57.7,57.7,0,0,0-6.38,3.33.37.37,0,0,0,.38.64Z" transform="translate(-195.74 -50.24)"/><path d="M277.44,153.55l5.64-2.53c.44-.2.06-.85-.37-.65l-5.64,2.54c-.44.19-.06.84.37.64Z" transform="translate(-195.74 -50.24)"/><path d="M275.56,157.92q5.51-1.81,10.91-3.86c.45-.17.26-.9-.2-.73q-5.41,2.05-10.91,3.87c-.46.15-.26.87.2.72Z" transform="translate(-195.74 -50.24)"/><path d="M277.17,160a47.33,47.33,0,0,1,9.91-3.25c.47-.1.27-.83-.2-.73a48.24,48.24,0,0,0-10.08,3.33c-.44.2-.06.85.37.65Z" transform="translate(-195.74 -50.24)"/><path d="M275.71,164.5a76,76,0,0,0,14.11-4.19c.44-.18.25-.91-.2-.73a76.19,76.19,0,0,1-14.1,4.2c-.48.09-.28.81.19.72Z" transform="translate(-195.74 -50.24)"/><path d="M290.28,160.16a10.38,10.38,0,0,1,3.55-.45c.48,0,.48-.72,0-.75a10.81,10.81,0,0,0-3.75.48.37.37,0,0,0,.2.72Z" transform="translate(-195.74 -50.24)"/><path d="M275.28,167.4a73.78,73.78,0,0,1,9.5-3.12c2.9-.68,5.88-.84,8.73-1.76.45-.15.26-.88-.2-.73-2.85.93-5.83,1.09-8.73,1.77a75.32,75.32,0,0,0-9.5,3.11c-.45.17-.25.9.2.73Z" transform="translate(-195.74 -50.24)"/><path d="M277.38,169a66.34,66.34,0,0,1,17.06-.75c.48,0,.48-.71,0-.75a67.43,67.43,0,0,0-17.26.77c-.48.08-.28.81.2.73Z" transform="translate(-195.74 -50.24)"/><path d="M296.81,131.9a53.73,53.73,0,0,1,9.93-1.47c.48,0,.48-.77,0-.75a54.21,54.21,0,0,0-10.13,1.5c-.47.11-.27.84.2.72Z" transform="translate(-195.74 -50.24)"/><path d="M303.85,133.58a27.7,27.7,0,0,0,6-.42c.48-.08.28-.81-.2-.72a26.48,26.48,0,0,1-5.83.39c-.48,0-.48.73,0,.75Z" transform="translate(-195.74 -50.24)"/><path d="M308.14,136.27a20.23,20.23,0,0,1,5.22-1.82c.48-.09.28-.81-.2-.72a21.13,21.13,0,0,0-5.4,1.89c-.43.22-.05.87.38.65Z" transform="translate(-195.74 -50.24)"/><path d="M251.45,149.86a3.72,3.72,0,0,0,1.55-.53c.41-.26,0-.91-.38-.65a2.77,2.77,0,0,1-1.17.43c-.48,0-.48.8,0,.75Z" transform="translate(-195.74 -50.24)"/><path d="M252.09,151.6l2.9-1.48c.43-.22,0-.87-.38-.65l-2.9,1.49c-.43.21-.05.86.38.64Z" transform="translate(-195.74 -50.24)"/><path d="M252.75,153.23l2.5-1.22c.44-.21.06-.85-.37-.64l-2.51,1.21c-.44.21-.06.86.38.65Z" transform="translate(-195.74 -50.24)"/><path class="cls-1" d="M358.52,212.72c-1.09,2.42,2.46,4.26,2.28,8.89-.18,4.42-3.62,7.52-3.88,7.74-3.38,3-5.93,1.27-9.11,4.33-2.26,2.17-1.56,3.59-3.87,5.93-2,2-4.13,2.63-7.75,3.64-16.32,4.58-18.34,4.85-20.28,5a41.25,41.25,0,0,1-9.57,0,60.12,60.12,0,0,1-8.88-2.05c-5.91-1.68-6.79-2.45-9.44-2.39-2.88.08-4.1,1-7.2,2.16-5.91,2.11-10.95,2-17.09,1.82A70.65,70.65,0,0,1,250.06,246c-6.76-1.42-10.28-2.16-14.35-4.56-1.25-.74-2.47-1.58-9.57-8.66-7.51-7.48-11.28-11.26-11.85-13-2.11-6.42,1.82-9.25-.68-17.77a11.74,11.74,0,0,1,2.94-12.79c2.67-2.54,5.33-2.59,9.82-3.84,7.63-2.13,8.59-4.51,10.78-5.09a4.73,4.73,0,0,1,1.4-.12c4.77,0,8.83-3.13,12.58-1.85,2.75.94,1.59,3,6.68,6.83a17.85,17.85,0,0,1,3.95,3.34c1.5,1.85,1.41,2.76,2.58,3.35,1.76.88,2.77-.79,5.62-.46a9.06,9.06,0,0,1,5.77,3.49,4.76,4.76,0,0,1,1.27,2.5c.2,1.91-1.31,2.95-.81,3.88s1.79.29,3.59,1a6.69,6.69,0,0,1,3.66,3.74c1.07,3.09-1.5,6-.16,7.23.59.54,1.24.15,2,.92.94.94.67,2.16,1.22,2.28s1.31-.76,1.46-1.71-.46-1.31-.7-2.39c-.42-1.85.76-3.58,1.21-4.25s1.59-2.33,3.35-2.58c1.35-.2,2.17.56,2.5.19.47-.55-1.37-2.11-1.95-4.74a7.33,7.33,0,0,1,.66-5.18c1.89-3.1,6.25-3.17,7.14-3.19a9.78,9.78,0,0,1,5.38,1.33c1.79,1.11,2.66,2.64,3.58,2.32.51-.17.5-.72,1.22-1.82a10.63,10.63,0,0,1,2.12-2.28,69.72,69.72,0,0,0,8.09-7.67c2.94-3.62,3.38-4.45,4.9-5.13,2.12-1,4.35-.72,8.2.34a65.18,65.18,0,0,1,12.88,5c18.71,10.1,20.17,12.74,20.85,14.74.23.65,2,5.85-.46,8.95S359.73,210,358.52,212.72Z" transform="translate(-195.74 -50.24)"/><path d="M216.36,188.9c-3.55,2.49-6.17,9.3-3.89,13.45,1.09,2,4.72,3.85,6.65,4.73a6.22,6.22,0,0,0,6.23-.23c4.86-2.55,9.07-6.15,6.64-12-2.67-6.38-9.93-3.29-14.91-5.94-.42-.23-.8.42-.37.65a15,15,0,0,0,6.45,1.43c2.25.14,4.93.2,6.69,1.85a8.15,8.15,0,0,1,2,3.84,7.1,7.1,0,0,1-2.85,6.87,9.83,9.83,0,0,1-6.72,2.74c-3,.12-4-.49-6.32-2a6.15,6.15,0,0,1-3.17-6c.13-3.48.92-6.6,4-8.76.39-.27,0-.92-.38-.64Z" transform="translate(-195.74 -50.24)"/><path d="M215.55,206.48c-4.48,9.77-.22,18.92,8.12,24.61,5.26,3.58,8.61,9.7,14.3,12.61,5.89,3,13.3,1.69,19.61,3.2,7,1.65,12.19,1.13,19.11-.45,4.18-.95,8.87-2.74,13.09-1.61,3.88,1,7.33,2.49,11.4,3a73.18,73.18,0,0,0,18.93-.52c6.52-.91,14.22-1.8,20-5.12,2.43-1.39,3.7-3.34,5.31-5.48,2.73-3.64,6.46-3.81,9.77-6.35,4.91-3.75,6-10,3.74-15.58-.18-.44-.91-.25-.73.2,2.33,5.72,1,12.24-4.63,15.58-2,1.21-5.07,1-6.87,2.48-1.19,1-1.49,2.64-2.23,3.88a13.07,13.07,0,0,1-4.74,4.63c-3.31,1.91-7.42,2.68-11.11,3.49a89.18,89.18,0,0,1-24,2.35,44.82,44.82,0,0,1-13.12-2.64c-2.09-.78-3.38-1.45-5.63-1.15-9.2,1.22-17,5.2-26.44,3a55.16,55.16,0,0,0-9.37-1.62c-4.81-.3-9.39-.21-13.56-3.07-5.07-3.47-8.55-8.73-13.7-12.24-7.54-5.13-10.52-14.36-6.65-22.81.2-.43-.45-.81-.65-.37Z" transform="translate(-195.74 -50.24)"/><path d="M319.67,181.83c9.73-5.69,20.28.38,29.19,4.93,4.84,2.47,9.63,5.08,14.32,7.83a.38.38,0,0,0,.38-.65c-6.2-3.63-12.53-7.07-19-10.15-8.15-3.89-16.69-7.61-25.25-2.61a.38.38,0,0,0,.38.65Z" transform="translate(-195.74 -50.24)"/><path d="M312.17,198.72c-5.85-5.84,6.1-6.51,7.6-6.44a14.36,14.36,0,0,1,7,2.41,67.11,67.11,0,0,1,7.91,5.16c4.72,3.69,8.6,6,14.62,7.11.48.09.68-.63.2-.72a28.17,28.17,0,0,1-9.17-3c-2.65-1.54-4.73-3.9-7.3-5.59-3.48-2.28-7.39-5.33-11.59-6-3-.49-8.31-.49-10.28,2.42a3.87,3.87,0,0,0,.48,5.17.38.38,0,0,0,.53-.53Z" transform="translate(-195.74 -50.24)"/><path d="M311.54,200.29c5.83,5,12.07,9.75,17.53,15.14,4.81,4.75,8.6,8.54,14.84,11.5.44.2.82-.44.38-.65a38.56,38.56,0,0,1-9.94-6.3c-2.05-1.9-3.71-4.16-5.78-6-5.34-4.88-11-9.46-16.5-14.17-.36-.31-.89.22-.53.53Z" transform="translate(-195.74 -50.24)"/><path d="M311.5,198.61c-4.19-3.93-7.88-7.41-14.05-5.64-3.54,1-6.57,4.32-5.38,8.18.86,2.8,3.54,5.53,5.41,7.77,3.06,3.66,6.48,7,9.86,10.36,5.94,5.87,13.08,11.16,17.54,18.2.26.4.91,0,.65-.38-5.12-8.08-13.43-14.09-20.2-20.87-3.61-3.62-9.73-8.63-11.55-13.46-1-1.16-1-2.52-.08-4.06q-.69-3.32,2.23-4.06a9.24,9.24,0,0,1,6-1.28c3.74.29,6.4,3.34,9,5.77.35.33.88-.2.53-.53Z" transform="translate(-195.74 -50.24)"/><path d="M294.44,205.33c-7.44-1.84-8.44,6.42-5.81,11.36,5.69,10.65,13.43,20.51,21.43,29.5.32.37.85-.17.53-.53a180.11,180.11,0,0,1-13.79-17.48q-2.81-4.05-5.37-8.25c-.84-1.37-1.74-2.73-2.46-4.17l-1-2.2q-1.85-5.82,6.24-7.5a.38.38,0,0,0,.2-.73Z" transform="translate(-195.74 -50.24)"/><path d="M287.72,214.46c-2.81,3.3-.57,9.68-.08,13.52.68,5.37.48,12.67,3.53,17.27.27.4.92,0,.65-.38-2.68-4-2.58-10.43-3.2-15.12-.47-3.57-3-11.69-.37-14.76.31-.36-.22-.89-.53-.53Z" transform="translate(-195.74 -50.24)"/><path d="M287,217.35c-.13-1.66-.57-4.2-2.81-4.15-3.3.08-4.76,7.83-5.66,9.84-2.17,4.81-5.81,9.68-7.16,14.78-.7,2.69-.19,5.1,2.06,6.8.38.29.76-.36.37-.65-5.13-3.88,1.41-12.21,3.42-16.37,1.08-2.21,2.1-4.45,3.08-6.71.25-.6.5-1.19.76-1.79.42-2.51,2.15-3.1,5.19-1.75,0,.48.79.48.75,0Z" transform="translate(-195.74 -50.24)"/><path d="M283.65,213.34c.41-2.82,1.16-6.35-.68-8.79-2.11-2.81-4.75-3.39-8.14-2.7-.47.1-.27.82.2.72,3.06-.62,6.16.11,7.77,3,1.13,2,.44,5.41.12,7.58-.07.47.66.67.73.19Z" transform="translate(-195.74 -50.24)"/><path d="M274.32,202.19c-4.25,7.75-9.87,14.51-14.1,22.21a100.49,100.49,0,0,1-6.78,9.93,10,10,0,0,0-2.28,7.16c0,.47.79.48.75,0-.38-4.48,2.57-7,5-10.23,2.2-2.95,3.73-6.28,5.61-9.43,3.93-6.59,8.73-12.48,12.45-19.26.23-.42-.42-.8-.65-.38Z" transform="translate(-195.74 -50.24)"/><path d="M275.43,202c2.81-3.22,2.31-6.13-1.06-8.69-5.16-3.91-9.11-2.42-13.49,1.67a39.06,39.06,0,0,0-6.46,8,38.26,38.26,0,0,1-9.5,10.49,25.69,25.69,0,0,0-5.26,5.41c-1.22,1.78-2.07,3.84-3.71,5.31-1.44,1.29-3.06,1.82-4.39,3.2-.33.34.2.87.53.53,2.57-2.67,5.12-3.7,7.17-7,2.78-4.41,6.5-6.86,10.31-10.23,3.28-2.89,4.84-6.75,7.38-10.23a35.29,35.29,0,0,1,5.74-6.16c2.61-2.2,5.29-3.15,8.51-2s7.5,4.72,3.7,9.08c-.32.36.21.89.53.53Z" transform="translate(-195.74 -50.24)"/><path d="M233.29,200.63c3.09-1.83,6.37-3.84,10.07-4s8.52,2,10.06,5.45c.2.44.85.06.65-.38-1.45-3.24-5.8-5.47-9.23-5.79-4.35-.41-8.35,2-11.93,4.09a.37.37,0,0,0,.38.64Z" transform="translate(-195.74 -50.24)"/><path d="M218.84,189l19.9-8.5c.44-.19.06-.83-.38-.65l-19.9,8.5c-.44.19-.06.83.38.65Z" transform="translate(-195.74 -50.24)"/><path d="M363.64,194.94c4.26,3,6,11.21,1.31,14.41a17.07,17.07,0,0,1-4.07,2.48c-3.46,1-6.91-.71-9.46-2.86-2.83-2.37-3.84-6.11-1.7-9.33,1.68-2.53,4.06-3,6.95-3.19,2.48-.16,4.77-.28,7-1.47.42-.23,0-.87-.38-.65-4.74,2.53-11.83-.35-14.69,5.42-2.95,6,1.41,9.86,6.42,12.49a6,6,0,0,0,5.66.48c2.13-.87,6-2.81,7.2-4.94,2.33-4.12-.33-11-3.87-13.49-.39-.28-.77.37-.38.65Z" transform="translate(-195.74 -50.24)"/><path class="cls-1" d="M166.67,248.72" transform="translate(-195.74 -50.24)"/><path class="cls-1" d="M350.77,173.61" transform="translate(-195.74 -50.24)"/><path class="cls-2" d="M326,179.08" transform="translate(-195.74 -50.24)"/><path class="cls-1" d="M283.59,218.76c1-.39,2.35-.63,2.62-1.88a2.39,2.39,0,0,0-1.8-2.71c-2.47-.48-3,3.58-3.18,5.27a1.51,1.51,0,0,0,1.5,1.5,1.54,1.54,0,0,0,1.5-1.5,7.53,7.53,0,0,1,.89-3l-.54.54.18-.09-.75.21.2,0-.75-.2c-.2-.33-.25-.35-.14-.06v-.79l0,.19.39-.67c.32-.28,0-.09-.22,0l-.66.25a1.55,1.55,0,0,0-1.05,1.85,1.53,1.53,0,0,0,1.85,1Z" transform="translate(-195.74 -50.24)"/><path class="cls-1" d="M295.74,199.3V198a1.5,1.5,0,0,0-3,0v1.35a1.5,1.5,0,0,0,3,0Z" transform="translate(-195.74 -50.24)"/><path class="cls-3" d="M359.58,173.3" transform="translate(-195.74 -50.24)"/><path d="M293.5,202.21c-.95-2.93-1.36-6.51,2.27-7.66.46-.15.26-.87-.2-.72-4,1.28-3.89,5.2-2.79,8.58.14.46.87.26.72-.2Z" transform="translate(-195.74 -50.24)"/><path d="M312.37,199.27a3.6,3.6,0,0,1-1.44-2.76c-.19-1.53.4-2.19,1.65-2.89.42-.23,0-.88-.38-.64-1.44.8-2.21,1.67-2,3.4a4.5,4.5,0,0,0,1.83,3.54c.41.26.78-.38.38-.65Z" transform="translate(-195.74 -50.24)"/></svg>