<svg id="Lag_1" data-name="Lag 1" xmlns="http://www.w3.org/2000/svg" viewBox="0 0 161.86 266.28"><defs><style>.cls-1{fill:#8e8e8e;}.cls-2{fill:#fff;}.cls-3{fill:#ddd;}.cls-4{fill:none;stroke:#000;stroke-miterlimit:10;stroke-width:2px;}</style></defs><title>skole</title><rect class="cls-1" x="263.41" y="13.03" width="70.11" height="99.36" transform="translate(-167.57 -53.22) rotate(9.06)"/><path class="cls-2" d="M336.49,130.89a15.22,15.22,0,0,1-4.5,5.25c-6.89,5.92-17.7,19.29-16.81,31.28.25,3.5,1.13,1.72,5.56,15.72,1.65,5.22,2.2,7.6,4.25,11.27,2.37,4.25,3.67,4.71,3.83,6.83.38,5-6,11-12.58,12.4-9.05,1.93-18.76-4.82-23.3-12.37-3.39-5.65-1.6-7.94-3.95-28.38-1.9-16.44-3.15-15.8-2.25-20.25,2.61-12.91,13.44-19.66,10.42-25.9-.56-1.14-.78-.63-4.18-4.13-2.22-2.29-8.92-9.19-7.73-11,1.35-2,11.34,5.17,15.65,1.62,3.24-2.66,0-8.72,4.09-12.36,2-1.76,5.51-2.83,7.5-1.5,3.77,2.53-.83,11.93,4,16a9.83,9.83,0,0,0,10.25,1c3-1.84,2.32-6.23,3-14.75.38-4.89,1.49-18.92,5.15-19.52,1.28-.21,2.49,1.28,3.1,2,2.7,3.32,2.05,7.59.25,21-.83,6.14-1.24,9.22-1.25,9.75C336.8,122.7,338.67,126.27,336.49,130.89Z" transform="translate(-181.16 -7.02)"/><path class="cls-3" d="M243.48,129.33c-.06,3.48-1.85,8.23-5.42,17.71-4.7,12.49-6.55,13.42-8.22,19.89-2,7.75-.53,10.93.35,25.38,1.09,17.89-.9,17.79,0,33.45,1.35,23.45,7.54,26,4.09,33.36-8.66,18.32-51.11,15.54-52.78,10.11-1-3.19.48-9,.48-9h0c0-.11,10.1-43.47,9.34-89-.09-5.77-.19-9.58-2.11-14.21-2.24-5.41-4.88-6.89-5.27-11.87-.33-4.21,1.47-4.42,1.42-9.9s-1.83-6.31-1.28-10.78c.23-1.87.75-6.12,3.8-8.35,3.48-2.53,6.45.33,11-1.77,3.9-1.79,2.79-4.36,7.67-9,5.43-5.23,9-4.12,11.8-8.86,1.38-2.3,1.58-4.32,2-8.36.68-6.94-.59-10.19-1-16.24-.43-6.51.11-16.86,2.35-17.26,2.68-.47,8.69,13.18,10.6,27.62,1.37,10.39-.82,10.33.82,18.67C236.12,115.91,243.66,118,243.48,129.33Z" transform="translate(-181.16 -7.02)"/><path d="M221.52,53.78c-5.74,2.08-3.43,10-3.09,14.59.65,8.8,1.06,17.65,2.62,26.35.17,1,1.62.55,1.45-.4a190.67,190.67,0,0,1-2.11-19.67c-.27-3.71-3.22-17.7,1.53-19.42.9-.33.51-1.78-.4-1.45Z" transform="translate(-181.16 -7.02)"/><path d="M222,54.92c7.92,3.83,8.25,15.72,9.14,23.25,1,8.56,2.1,17.09,2,25.72a.75.75,0,0,0,1.5,0c.16-10.53-1.26-21.11-2.67-31.53-.92-6.76-2.36-15.44-9.18-18.74-.86-.41-1.63.88-.76,1.3Z" transform="translate(-181.16 -7.02)"/><path d="M216.14,126.89c0,2.39-.29,5.07.18,7.42a3.36,3.36,0,0,0,3.07,3c1,.09,1-1.41,0-1.5-2.57-.24-1.74-7.14-1.75-8.9a.75.75,0,0,0-1.5,0Z" transform="translate(-181.16 -7.02)"/><path d="M219.93,137.33c1.9-.37,2.84-2.16,3.82-3.66a66.71,66.71,0,0,0,4-7c.43-.86-.87-1.62-1.3-.76q-1.26,2.58-2.74,5c-.92,1.53-2.24,4.54-4.15,4.91-.95.18-.55,1.63.4,1.45Z" transform="translate(-181.16 -7.02)"/><path d="M228,125.34c-.66-4.42-1.51-8.34-4-12-3.63-5.49-6.76-11.9-2.76-18.13.52-.82-.77-1.57-1.29-.76-2.72,4.24-2.64,9-.76,13.57,1.09,2.67,2.86,4.71,4.28,7.16,1.88,3.22,2.51,7,3.07,10.61.14,1,1.59.54,1.44-.4Z" transform="translate(-181.16 -7.02)"/><path d="M209.84,107.9c1.78-.47,4.44,7.45,4.9,8.92,1,3.19.88,6.76,1.11,10.07.06,1,1.56,1,1.5,0-.19-2.7-.2-5.5-.63-8.18-.4-2.51-1.6-4.48-2.41-6.85-.88-2.59-1.19-6.38-4.86-5.41a.75.75,0,0,0,.39,1.45Z" transform="translate(-181.16 -7.02)"/><path d="M209.33,106.19a20.49,20.49,0,0,1,8.08-6.41c.88-.39.12-1.68-.75-1.29a21.85,21.85,0,0,0-8.62,6.94c-.58.77.72,1.52,1.29.76Z" transform="translate(-181.16 -7.02)"/><path d="M215.26,133.51c-.41,2.41-2.66,3.4-4.92,3.18-2.58-.26-2.81-2.16-2.64-4.29.08-1-1.42-1-1.5,0-.25,3,.58,5.43,3.93,5.78,3,.31,6-1.14,6.58-4.27.16-.94-1.29-1.35-1.45-.4Z" transform="translate(-181.16 -7.02)"/><path d="M207.55,131.23l-4.4-10.59a45.7,45.7,0,0,1-2-4.82c-1.71-6,2-8.89,7.69-8.09.94.13,1.35-1.32.4-1.45-4.11-.57-9.16.36-10.2,5.13-.62,2.79.94,5.5,2,8l5.08,12.23c.37.88,1.82.49,1.45-.4Z" transform="translate(-181.16 -7.02)"/><path d="M198.91,113.52c-5.1-.29-10,.38-13.16,4.81-3.6,5.07-2.87,11.5-1.57,17.22.21.94,1.66.54,1.45-.4-1.13-4.94-1.92-10.41.75-15s7.56-5.39,12.53-5.11c1,0,1-1.45,0-1.5Z" transform="translate(-181.16 -7.02)"/><path d="M184.63,135c-2.22,6.69-.37,11.35,2.33,17.46,3.68,8.34,3.91,18.79,3.94,27.79a.75.75,0,0,0,1.5,0,110.58,110.58,0,0,0-2.26-22.52,32.71,32.71,0,0,0-3-8.22,17.47,17.47,0,0,1-1.08-14.11c.31-.92-1.14-1.31-1.45-.4Z" transform="translate(-181.16 -7.02)"/><path d="M189.22,132.36a38.53,38.53,0,0,0,5.35.48.75.75,0,0,0,0-1.5,34.21,34.21,0,0,1-4.95-.43c-.94-.15-1.35,1.3-.4,1.45Z" transform="translate(-181.16 -7.02)"/><path d="M190.68,126.49q2.7,3.83,5.07,7.85c1.09,1.86,2.12,3.69,4.13,4.69a8.15,8.15,0,0,0,4.93.76c1.84-.48,2.34-2.32,2.74-4,.22-.94-1.23-1.34-1.45-.4a3.5,3.5,0,0,1-4.82,2.6c-2.15-.73-3.17-2.58-4.24-4.4-1.57-2.69-3.27-5.3-5.06-7.85-.55-.79-1.85,0-1.3.76Z" transform="translate(-181.16 -7.02)"/><path d="M221.46,96c3.63-.52,7.14,4.79,9.21,7s4.15,4.39,6.1,6.69c2.3,2.7,1.9,5.59,2.84,8.8.74,2.55,2.07,4.87,3,7.37,2.38,6.69-1.95,13.37-4.45,19.48-2.89,7.09-5.76,14.19-8.93,21.16-.4.87.89,1.64,1.29.76,3.77-8.28,7.13-16.72,10.57-25.13,2.94-7.22,5.18-11.43,2.07-18.84a38.93,38.93,0,0,1-2.27-5.89c-.4-1.67-.07-3.62-.6-5.26-.79-2.44-3.32-4.56-5-6.38-3.45-3.76-8.28-12.09-14.2-11.24-.95.14-.54,1.59.4,1.45Z" transform="translate(-181.16 -7.02)"/><path d="M191,179.72c.66,12.63-1.32,25.56-3,38.06q-2.67,20.31-6.8,40.38c-.19.94,1.26,1.34,1.45.39q3.95-19.32,6.6-38.88c1.76-13.11,3.9-26.69,3.21-39.95,0-1-1.55-1-1.5,0Z" transform="translate(-181.16 -7.02)"/><path d="M235,258.92c-4.54-29.88-4.53-60.35-5.62-90.49a.75.75,0,0,0-1.5,0c1.09,30.28,1.12,60.87,5.67,90.89.15.95,1.59.54,1.45-.4Z" transform="translate(-181.16 -7.02)"/><path d="M293.69,201.27c-.41-3.75-.32-7.53-.74-11.28-.37-3.32-1.51-6.43-2-9.72a131.15,131.15,0,0,0-4.91-22c-.31-.91-1.75-.52-1.45.4a130.57,130.57,0,0,1,4.84,21.85c.42,2.68,1.34,5.19,1.81,7.85.76,4.25.5,8.65,1,12.94.11.95,1.61,1,1.5,0Z" transform="translate(-181.16 -7.02)"/><path d="M286,158c0-5.92,3.05-12.62,5.65-17.87,2-4,4.79-6.7,6.18-11.18.29-.93-1.16-1.32-1.44-.4-1.56,5-5.15,8.62-7.15,13.46-2.13,5.14-4.73,10.33-4.74,16a.75.75,0,0,0,1.5,0Z" transform="translate(-181.16 -7.02)"/><path d="M297.8,128.42c2.44-3.49,3.08-7.46,3.82-11.58.78-4.38,2.05-22.17,10.22-16,5.2,3.95,1.14,12.15.56,17.64a28.33,28.33,0,0,0,2.08,13.61c.35.88,1.81.5,1.45-.4a27.05,27.05,0,0,1-1.83-14.6c.51-3.2,1.68-6.28,1.75-9.55.09-3.85-.2-8.92-4.69-9.64-4.72-.75-7.68,2-8.79,6.26-2,7.56-1.25,16.87-5.87,23.47-.55.79.75,1.54,1.3.76Z" transform="translate(-181.16 -7.02)"/><path d="M313.65,126.72c1.94.14,3.8-.31,5.73-.28,2.65,0,5,1.25,7.26,2.46.85.46,1.61-.84.75-1.29a20.55,20.55,0,0,0-6.51-2.57c-2.41-.35-4.81.36-7.23.18-1-.07-.95,1.43,0,1.5Z" transform="translate(-181.16 -7.02)"/><path d="M317.44,125.68c.5-1.71,2.27-3.19,3.54-4.39a12.45,12.45,0,0,1,5-3.12.75.75,0,0,0-.4-1.44,14,14,0,0,0-5.64,3.49c-1.5,1.42-3.33,3-3.93,5.06a.75.75,0,0,0,1.45.4Z" transform="translate(-181.16 -7.02)"/><path d="M327,117.74q1.52-8.71,3.36-17.35.89-4.1,1.85-8.16c.64-2.72.93-7.75,3.25-9.58.76-.6-.31-1.65-1.06-1.06-3.49,2.76-3.77,10.73-4.68,14.77-1.57,7-2.94,14-4.16,21-.17.94,1.28,1.35,1.44.4Z" transform="translate(-181.16 -7.02)"/><path d="M337.33,130c-1.49-11.19,2.24-22.49,1.61-33.81-.15-2.81,1.23-17.21-5-14.43-.88.39-.11,1.69.76,1.3,2.26-1,2.61,11.21,2.67,12.18a84.71,84.71,0,0,1,0,12.34c-.67,7.56-2.59,14.79-1.57,22.42.12.94,1.62.95,1.5,0Z" transform="translate(-181.16 -7.02)"/><path d="M284.72,112.16c4.73,4.29,6.22,12,12.06,15.23.85.46,1.6-.83.75-1.3-5.65-3.07-7.12-10.79-11.75-15-.72-.65-1.78.41-1.06,1.06Z" transform="translate(-181.16 -7.02)"/><path d="M295.28,113.62a27.7,27.7,0,0,1,4.56,4.43c.61.75,1.67-.32,1.06-1.06a28.17,28.17,0,0,0-4.56-4.44c-.76-.58-1.83.47-1.06,1.07Z" transform="translate(-181.16 -7.02)"/><path d="M313.68,115.86a23.5,23.5,0,0,1,1.64,2.43c.5.82,1.8.07,1.3-.76a27,27,0,0,0-1.88-2.73.75.75,0,0,0-1.06,0,.76.76,0,0,0,0,1.06Z" transform="translate(-181.16 -7.02)"/><path d="M315.93,117.32l-1.43.35c-.21,0-.46,0-.31.22a.73.73,0,0,1-.08-.38c-.08-1-1.58-1-1.5,0a1.75,1.75,0,0,0,1,1.71,2.31,2.31,0,0,0,1.3-.1l1.43-.35c.93-.23.54-1.68-.4-1.45Z" transform="translate(-181.16 -7.02)"/><path d="M329.47,200.87c-1-2.36-2.73-4.26-3.76-6.66-1.23-2.89-2.28-5.89-3.41-8.83-2.25-5.9-4.42-11.83-6.45-17.81-.31-.91-1.76-.52-1.45.4,2.23,6.58,4.65,13.09,7.13,19.57,1.08,2.8,2,5.78,3.3,8.47,1,2,2.46,3.6,3.34,5.61.39.89,1.68.12,1.3-.75Z" transform="translate(-181.16 -7.02)"/><path d="M315.93,167.42c.76-8.93,5.38-15.35,10.27-22.49a102.71,102.71,0,0,1,6.61-9.38c1.81-2.07,3.72-3.25,4.43-6a.75.75,0,0,0-1.44-.4c-.83,3.19-4.92,6.34-6.87,9.15-2.37,3.41-4.7,6.85-7,10.28-4.06,5.94-6.84,11.54-7.46,18.84-.09,1,1.42,1,1.5,0Z" transform="translate(-181.16 -7.02)"/><line class="cls-4" x1="151.99" y1="75.61" x2="160.87" y2="13.48"/><line class="cls-4" x1="89.62" y1="0.98" x2="160.87" y2="13.48"/><line class="cls-4" x1="74.87" y1="99.23" x2="89.62" y2="0.98"/><line class="cls-4" x1="144.6" y1="110.43" x2="133.05" y2="108.31"/><line class="cls-4" x1="119.74" y1="106.23" x2="74.87" y2="99.23"/><path class="cls-2" d="M75.41,180.91" transform="translate(-181.16 -7.02)"/></svg>