<svg id="Lag_1" data-name="Lag 1" xmlns="http://www.w3.org/2000/svg" viewBox="0 0 204.68 260.57"><defs><style>.cls-1{fill:#fff;}.cls-2{fill:#5d5d5e;}.cls-3{fill:#c6c6c6;}</style></defs><title>solidaritet2</title><path class="cls-1" d="M311.59,68.54c-.54,2.36,0,5.86,1.16,12.75,5.09,30.77,5.62,33.19,3.91,36.11-6,10.2-30.57,11.55-37.25,2.36-4.44-6.11,2.56-12.07,1.44-31.85-.5-8.9-2.45-17-4.21-24.38s-2.77-12.77-4.82-23.77c-.72-3.9-1.12-6.21-.6-9.33,1.19-7.15,6.53-14.69,11.74-14.75,2.1,0,2.91,1.19,5.6.71,2.31-.41,3-1.52,5.83-1.91,2-.27,2,.21,3.74-.07,3.4-.56,3.5-2.45,5.89-2.64,2.91-.23,3.59,2.5,7.68,2.76,2,.14,2.22-.52,3.75-.14a7.8,7.8,0,0,1,5.12,4.9c1.11,3.17-.72,5.13.91,7.53a5.79,5.79,0,0,0,2.09,1.77c3.84,2.31,6.25,10.38,5.73,15.68C328.23,55.24,314.46,56.08,311.59,68.54Z" transform="translate(-187.69 -11.29)"/><path d="M280.16,119.76l.63-23.59c.19-7.36.77-14.87-.71-22.13-1.44-7-4.06-13.81-5.86-20.75-1.74-6.73-1-14.16-2.12-21.08-.16-.95-1.6-.55-1.45.4,1.09,6.73.39,13.76,1.93,20.36s4,13,5.63,19.61c1.89,7.73,1.29,15.72,1.08,23.59l-.63,23.59a.75.75,0,0,0,1.5,0Z" transform="translate(-187.69 -11.29)"/><path d="M272.27,31.61c.34-3.27,3.17-7.38,4.81-10.2,1.93-3.33,6.17-7.51,10.15-4.29.74.6,1.81-.45,1.06-1.06-3.11-2.52-7.21-1.62-9.92,1.08-2,1.95-3.15,4.51-4.39,6.93s-2.92,4.82-3.21,7.54c-.1,1,1.4,1,1.5,0Z" transform="translate(-187.69 -11.29)"/><path d="M288.53,17.46c2.63-1.69,6.05-4.71,9.22-2.41.78.57,1.53-.73.76-1.29-3.68-2.68-7.62.4-10.74,2.4-.81.52-.06,1.82.76,1.3Z" transform="translate(-187.69 -11.29)"/><path d="M299.31,15c1.32-2.05,4.22-2.5,6.51-2.17s2.87,1.76,4.23,3.32c.64.72,1.7-.34,1.06-1.06-.84-1-1.41-2.29-2.48-3a6.18,6.18,0,0,0-3.62-.74c-2.76,0-5.4.46-7,2.93-.52.82.77,1.57,1.3.76Z" transform="translate(-187.69 -11.29)"/><path d="M311.08,16.31c1.27-1.16,3-1.86,4.58-.8a12.3,12.3,0,0,1,2.79,2.88c1.72,2.5,1.33,5.57,1,8.42-.12,1,1.38,1,1.5,0,.59-4.6.31-8-3.12-11.33-1-1-1.82-2-3.33-2.05A6.15,6.15,0,0,0,310,15.25c-.72.66.35,1.72,1.06,1.06Z" transform="translate(-187.69 -11.29)"/><path d="M320,27.83a14.12,14.12,0,0,1,3.15,1.41.75.75,0,0,0,.76-1.3,15.58,15.58,0,0,0-3.52-1.55.75.75,0,0,0-.39,1.44Z" transform="translate(-187.69 -11.29)"/><path d="M323.06,28.92c1.2,3.43,2.47,6.84,3.62,10.28,1.93,5.77,1.12,9.79-3.24,14.38s-9.18,9-12.49,14.58a.75.75,0,0,0,1.29.75c2.53-4.29,5.86-7.79,9.34-11.31,2.49-2.52,5.43-5,7-8.28,3.05-6.41-1.93-14.76-4.06-20.8-.32-.9-1.77-.51-1.44.4Z" transform="translate(-187.69 -11.29)"/><path d="M311,69.24a99.74,99.74,0,0,0,1.54,23.33c1.49,8.54,4.58,17.25,4.28,26,0,1,1.46,1,1.5,0,.26-7.72-2.21-15.26-3.67-22.77a104.63,104.63,0,0,1-2.15-26.53c.06-1-1.44-1-1.5,0Z" transform="translate(-187.69 -11.29)"/><path d="M276.45,31.12a20.89,20.89,0,0,0,5.06-.49l-.95-.72c-.21,2.82-1.5,7.38,1.1,9.5,1.94,1.58,4.72.92,6.52-.49,7.86-6.16,3.56-15.14,1.1-22.73-.29-.91-1.74-.52-1.44.4,1.34,4.17,4.45,10,3.44,14.51a15.15,15.15,0,0,1-1.57,3.48q-2,4.34-8.06,1.12c-.49-1.42.3-4.29.41-5.79a.74.74,0,0,0-.94-.72,13.67,13.67,0,0,1-4.67.43c-1,0-1,1.47,0,1.5Z" transform="translate(-187.69 -11.29)"/><path d="M286.62,40.57c1.24,2,2.64,3.6,5.18,3,2.72-.63,7.5-3.78,9-6.22,2-3.14.88-9,.93-12.61s.47-7.48-2.34-10.28c-.69-.68-1.75.38-1.06,1.06,3.32,3.3,1.88,10.42,1.82,14.66-.06,3.85-.32,6.45-3.62,8.87-2.33,1.71-6,5-8.66.77-.51-.82-1.8-.07-1.29.75Z" transform="translate(-187.69 -11.29)"/><path d="M319.76,26.78a36.77,36.77,0,0,1-9.65-.57c-1.57-.24-3.68-.85-5.28-.39-3,.87-2.85,4.19-2,6.62,2.05,5.64,11.47,14.28,17.35,8.52.69-.67-.37-1.73-1.06-1.06-4.82,4.72-14.66-3.67-15.22-9-.6-5.77,5.55-3.28,8.24-2.89a30.14,30.14,0,0,0,7.59.24c.95-.1,1-1.6,0-1.5Z" transform="translate(-187.69 -11.29)"/><path d="M298.14,60.85a14.8,14.8,0,0,1,1.67-12.33,12.6,12.6,0,0,1,4.59-4.8c2.57-1.46,5.13-1.19,8-.78.94.13,1.35-1.31.4-1.45-5.41-.78-9.46-.22-12.93,4.31S295,55.86,296.69,61.25c.3.92,1.75.53,1.45-.4Z" transform="translate(-187.69 -11.29)"/><path d="M296,41.31a4.85,4.85,0,0,0,5.42,2.56c2.72-.57,4.48-2.83,5.64-5.19.42-.86-.87-1.62-1.3-.75a8.53,8.53,0,0,1-3.2,3.91c-1.88,1.07-4.23.8-5.27-1.29-.43-.86-1.72-.1-1.29.76Z" transform="translate(-187.69 -11.29)"/><path d="M311.4,25.61l.44-9.36c0-1-1.46-1-1.5,0l-.44,9.36c0,1,1.45,1,1.5,0Z" transform="translate(-187.69 -11.29)"/><path d="M282.5,29.83V25a.75.75,0,0,0-1.5,0v4.82a.75.75,0,0,0,1.5,0Z" transform="translate(-187.69 -11.29)"/><path class="cls-1" d="M366,153.69c-.81,3.51,0,8.7,1.71,18.92,7.56,45.64,8.34,49.24,5.81,53.57-8.86,15.14-45.36,17.14-55.26,3.51-6.58-9.07,3.79-17.91,2.13-47.26-.74-13.2-3.63-25.23-6.25-36.16S310,127.32,307,111c-1.08-5.78-1.66-9.21-.89-13.84,1.76-10.6,9.68-21.79,17.41-21.87,3.11,0,4.32,1.76,8.31,1,3.42-.61,4.39-2.26,8.65-2.84,2.93-.4,3,.31,5.54-.11,5.05-.82,5.2-3.62,8.75-3.91,4.31-.35,5.32,3.71,11.38,4.1,3,.2,3.29-.77,5.57-.2a11.56,11.56,0,0,1,7.6,7.26c1.64,4.7-1.07,7.62,1.34,11.16a8.51,8.51,0,0,0,3.1,2.63c5.71,3.44,9.27,15.41,8.51,23.27C390.68,134,370.25,135.22,366,153.69Z" transform="translate(-187.69 -11.29)"/><path d="M319,229.69l.92-34.8c.29-10.78,1.18-21.83-.93-32.48s-6.17-20.92-8.86-31.45c-1.36-5.34-1.08-10.56-1.27-16a121.27,121.27,0,0,0-1.81-15.07c-.16-1-1.6-.54-1.45.4a109,109,0,0,1,1.79,16.39c.05,4.4-.08,8.64.87,12.95,2.33,10.6,6.48,20.75,8.89,31.33,2.53,11.08,1.57,22.65,1.27,33.92l-.92,34.8c0,1,1.47,1,1.5,0Z" transform="translate(-187.69 -11.29)"/><path d="M307.3,98.92c.52-4.92,4.72-11.07,7.19-15.32,3-5.17,9.51-11.38,15.62-6.43.75.6,1.82-.46,1.06-1.06-4.46-3.62-10.33-2.25-14.2,1.6-2.88,2.87-4.63,6.64-6.46,10.21s-4.29,7-4.71,11c-.1,1,1.4,1,1.5,0Z" transform="translate(-187.69 -11.29)"/><path d="M331.59,77.61c4-2.59,9.22-7.1,14.05-3.57.78.57,1.53-.73.76-1.3-5.33-3.88-11,.68-15.56,3.57-.81.52-.06,1.82.75,1.3Z" transform="translate(-187.69 -11.29)"/><path d="M347.46,74.06c2-3.15,6.43-3.9,10-3.4s4.45,2.65,6.54,5c.63.73,1.69-.34,1.06-1.06-1.22-1.39-2.06-3.35-3.62-4.44s-3.37-1-5.17-1.06c-4,0-7.78.62-10.08,4.17-.52.82.77,1.57,1.3.76Z" transform="translate(-187.69 -11.29)"/><path d="M365,76c2-1.88,4.84-2.91,7.31-1.2a18.55,18.55,0,0,1,4.17,4.31c2.6,3.79,2.06,8.4,1.52,12.72-.13,1,1.38,1,1.5,0,.85-6.74.49-11.73-4.53-16.56-1.46-1.4-2.56-2.79-4.68-2.93a8.68,8.68,0,0,0-6.36,2.6c-.71.65.35,1.71,1.07,1.06Z" transform="translate(-187.69 -11.29)"/><path d="M378.62,93a21.61,21.61,0,0,1,4.76,2.12.75.75,0,0,0,.76-1.29A22.77,22.77,0,0,0,379,91.52a.75.75,0,0,0-.4,1.44Z" transform="translate(-187.69 -11.29)"/><path d="M383.35,94.83c2,5.61,4.08,11.19,5.93,16.83,2.44,7.47,1.2,12.87-4.09,18.65-6.88,7.52-14.69,14.06-19.84,23a.75.75,0,0,0,1.3.75c3.26-5.67,7.59-10.45,12.16-15.1,3.88-3.93,8.41-7.73,11.29-12.51,2.43-4,2.58-8.27,1.36-12.78-1.75-6.52-4.42-12.88-6.66-19.25-.32-.9-1.77-.51-1.45.4Z" transform="translate(-187.69 -11.29)"/><path d="M365.41,154.74a145.79,145.79,0,0,0,2.4,35.26c2.2,12.41,6.81,25.19,6.22,37.87,0,1,1.46,1,1.5,0,.54-11.67-3.42-23.23-5.59-34.59-2.44-12.73-3.9-25.58-3-38.54.06-1-1.44-1-1.5,0Z" transform="translate(-187.69 -11.29)"/><path d="M313.87,97.82c.87,0,4.84-.68,5.64-.3,1.23.59.51,2.86.43,3.93-.17,2.35-.68,5.26.68,7.42,2,3.13,6.29,3.16,9.2,1.46,4.22-2.48,7.76-8.81,8.17-13.63.56-6.68-3.43-14.35-5.44-20.56-.29-.92-1.74-.53-1.44.4,2.36,7.29,7.38,16.73,4.14,24.21-1.6,3.68-4.7,9.33-9.36,9-6.31-.42-4.38-9.17-4.06-13.38a.76.76,0,0,0-.95-.72,26.64,26.64,0,0,1-7,.65c-1,0-1,1.46,0,1.5Z" transform="translate(-187.69 -11.29)"/><path d="M329.26,112c2.07,3.39,4.23,5.41,8.21,3.86,3.71-1.43,11.36-5.83,13-9.86,1-2.39.41-5.64.45-8.17q.09-5.64.17-11.29c.06-4.6.29-9.5-3.41-12.84-.71-.64-1.78.41-1.06,1.06,5.19,4.69,2.91,15.91,2.81,22.13-.07,5.3.11,9-4.5,12.52-3.84,3-10.41,8.35-14.38,1.83-.5-.82-1.8-.07-1.3.76Z" transform="translate(-187.69 -11.29)"/><path d="M378.11,92.12c-4.9.53-9.57-.13-14.41-.87-2.25-.35-5.34-1.23-7.64-.57-4.22,1.22-3.92,5.94-2.69,9.33,2.94,8.11,16.64,20.86,25.16,12.52.69-.67-.37-1.73-1.06-1.06-7.39,7.23-22.27-5.33-23.18-13.47-1-9.12,8.49-5.33,12.66-4.73a44.84,44.84,0,0,0,11.16.35c.95-.11,1-1.61,0-1.5Z" transform="translate(-187.69 -11.29)"/><path d="M345.69,142.39c-2.07-6.26-.91-12.75,2.38-18.39a23,23,0,0,1,5.48-6.57c4.1-3.19,8.86-2.76,13.7-2.06.94.13,1.35-1.31.39-1.45-8.15-1.17-14.13-.13-19.16,6.75-4.7,6.41-6.77,14.46-4.24,22.12.3.92,1.75.52,1.45-.4Z" transform="translate(-187.69 -11.29)"/><path d="M343.15,113.12a6.82,6.82,0,0,0,7.63,3.63c3.94-.8,6.48-4.12,8.15-7.52.42-.87-.87-1.63-1.3-.76-1.14,2.33-2.56,4.62-4.89,5.94-2.94,1.67-6.67,1.23-8.3-2-.43-.86-1.72-.1-1.29.76Z" transform="translate(-187.69 -11.29)"/><path d="M365.34,90,366,76.13c0-1-1.46-1-1.5,0L363.84,90c0,1,1.46,1,1.5,0Z" transform="translate(-187.69 -11.29)"/><path d="M322.48,96.27V89.12a.75.75,0,0,0-1.5,0v7.15a.75.75,0,0,0,1.5,0Z" transform="translate(-187.69 -11.29)"/><path class="cls-2" d="M235.07,108.47c-.63,2.74,0,6.79,1.34,14.78,5.91,35.68,6.51,38.5,4.54,41.88-6.92,11.83-35.46,13.4-43.2,2.74-5.15-7.09,3-14,1.67-36.94-.59-10.32-2.84-19.72-4.89-28.27S191.32,87.85,189,75.09c-.84-4.52-1.3-7.2-.7-10.82,1.38-8.28,7.57-17,13.61-17.1,2.44,0,3.38,1.38,6.5.82,2.67-.47,3.43-1.76,6.76-2.21,2.29-.31,2.33.24,4.33-.09,4-.64,4.07-2.83,6.84-3,3.37-.28,4.16,2.9,8.9,3.2,2.35.15,2.57-.6,4.35-.16a9,9,0,0,1,5.94,5.68c1.28,3.67-.84,6,1.05,8.72A6.6,6.6,0,0,0,249,62.14c4.46,2.68,7.24,12,6.64,18.19C254.36,93.05,238.39,94,235.07,108.47Z" transform="translate(-187.69 -11.29)"/><path d="M198.5,167.87l.71-26.6c.23-8.68,1-17.6-.75-26.18-1.65-8.23-4.74-16.16-6.84-24.28-1.12-4.3-.89-8.44-1.06-12.81a94.9,94.9,0,0,0-1.41-11.63c-.15-1-1.6-.54-1.44.4,1.26,7.8.45,16,2.24,23.61,1.84,7.89,4.83,15.5,6.68,23.39,2.12,9,1.32,18.35,1.08,27.5l-.71,26.6a.75.75,0,0,0,1.5,0Z" transform="translate(-187.69 -11.29)"/><path d="M189.35,65.65c.4-3.82,3.68-8.6,5.59-11.9,2.29-3.93,7.28-8.78,12-5,.75.6,1.81-.45,1.06-1.06-3.56-2.89-8.24-1.83-11.34,1.25-2.26,2.25-3.63,5.21-5.07,8s-3.37,5.55-3.7,8.69c-.1,1,1.4.95,1.5,0Z" transform="translate(-187.69 -11.29)"/><path d="M208.26,49.13c3.1-2,7.1-5.5,10.82-2.79.78.57,1.53-.73.75-1.3-4.22-3.07-8.75.5-12.33,2.79-.81.52-.06,1.82.76,1.3Z" transform="translate(-187.69 -11.29)"/><path d="M220.72,46.3c1.56-2.41,4.95-3,7.65-2.58s3.39,2.06,5,3.88c.63.73,1.69-.33,1.06-1.06-1-1.1-1.63-2.63-2.86-3.49a6.94,6.94,0,0,0-4.13-.85c-3.17,0-6.19.51-8,3.34-.52.81.77,1.57,1.3.76Z" transform="translate(-187.69 -11.29)"/><path d="M234.39,47.82c1.52-1.4,3.63-2.21,5.48-.93a14.35,14.35,0,0,1,3.25,3.35c2,2.93,1.57,6.51,1.15,9.84-.12,1,1.38,1,1.5,0,.67-5.31.37-9.26-3.58-13.06-1.18-1.13-2.07-2.23-3.78-2.34a7,7,0,0,0-5.09,2.08c-.71.65.35,1.71,1.07,1.06Z" transform="translate(-187.69 -11.29)"/><path d="M244.89,61.15a16.69,16.69,0,0,1,3.69,1.64.75.75,0,0,0,.75-1.3,18.49,18.49,0,0,0-4-1.79c-.92-.28-1.32,1.17-.4,1.45Z" transform="translate(-187.69 -11.29)"/><path d="M248.48,62.5c1.4,4,2.86,7.92,4.2,11.91C255,81.3,253.94,85.89,249,91.1c-5.19,5.46-10.74,10.42-14.57,17a.75.75,0,0,0,1.3.75c4.86-8.34,13.67-13.53,18.42-21.75,4.39-7.6-1.63-17.67-4.22-25-.32-.91-1.77-.52-1.44.4Z" transform="translate(-187.69 -11.29)"/><path d="M234.44,109.28a115.76,115.76,0,0,0,1.84,27.37c1.72,9.8,5.3,19.8,4.91,29.8,0,1,1.46,1,1.5,0,.35-8.92-2.56-17.69-4.25-26.37-2-10.18-3.16-20.42-2.5-30.8.07-1-1.43-1-1.5,0Z" transform="translate(-187.69 -11.29)"/><path d="M194.32,65c4.58.11,4.65-.73,4.48,4-.06,1.59-.18,3.34.78,4.72,1.69,2.45,5,2.35,7.38,1,10.35-6.07,4.86-18.39,2.12-26.84-.29-.92-1.74-.53-1.44.39,1.75,5.43,5.5,12.63,3.45,18.24-.82,2.23-3.56,7.82-6.31,7.57l-4.55-3.61.07-1.45a30.27,30.27,0,0,1,.41-5.27.76.76,0,0,0-1-.72,15.64,15.64,0,0,1-5.44.5.75.75,0,0,0,0,1.5Z" transform="translate(-187.69 -11.29)"/><path d="M206.21,76c1.47,2.35,3.1,4.18,6,3.35,3.12-.88,9.32-4.77,10.76-7.9.56-1.22.37-2.74.4-4q.11-5.52.16-11c0-3.84.26-7.69-2.7-10.52-.7-.67-1.77.39-1.07,1.06,4,3.8,2.22,12.8,2.15,17.74-.05,3.41,0,5.87-2.59,8.45s-8.74,7.15-11.86,2.13c-.51-.82-1.81-.06-1.3.76Z" transform="translate(-187.69 -11.29)"/><path d="M244.54,60.17a42.65,42.65,0,0,1-11.22-.68c-1.8-.27-4.23-1-6.06-.44-3.4,1-3.21,4.77-2.21,7.51C227.39,73,238.23,83,245,76.41c.69-.68-.37-1.74-1.06-1.06-5.67,5.54-17.18-4.23-17.85-10.46-.74-6.88,6.52-4,9.7-3.5a34.81,34.81,0,0,0,8.77.28c1-.11,1-1.61,0-1.5Z" transform="translate(-187.69 -11.29)"/><path d="M219.35,99.59a17.28,17.28,0,0,1,2-14.4,14.67,14.67,0,0,1,5.37-5.6c3-1.72,6-1.41,9.33-.93.95.14,1.35-1.31.4-1.45-6.22-.89-10.87-.25-14.85,5s-5.66,11.6-3.65,17.83c.3.91,1.75.52,1.45-.4Z" transform="translate(-187.69 -11.29)"/><path d="M217.06,76.83a5.51,5.51,0,0,0,6.16,2.91c3.12-.64,5.13-3.25,6.47-5.95.42-.87-.87-1.63-1.3-.76a10,10,0,0,1-3.76,4.58c-2.23,1.27-5,.94-6.27-1.54-.43-.86-1.73-.1-1.3.76Z" transform="translate(-187.69 -11.29)"/><path d="M234.72,58.69l.51-10.86c.05-1-1.45-1-1.5,0l-.51,10.86c-.05,1,1.45,1,1.5,0Z" transform="translate(-187.69 -11.29)"/><path d="M201.22,63.57V58a.75.75,0,0,0-1.5,0v5.58a.75.75,0,0,0,1.5,0Z" transform="translate(-187.69 -11.29)"/><path class="cls-3" d="M269.57,186.73c-.81,3.51,0,8.69,1.72,18.91,7.55,45.65,8.33,49.25,5.8,53.57-8.85,15.14-45.36,17.15-55.26,3.51-6.58-9.07,3.8-17.9,2.13-47.26-.74-13.2-3.63-25.22-6.25-36.16-2.58-10.78-4.1-18.94-7.14-35.26-1.08-5.79-1.66-9.21-.89-13.84,1.76-10.6,9.68-21.8,17.41-21.88,3.11,0,4.32,1.76,8.31,1.05,3.42-.61,4.39-2.25,8.65-2.83,2.93-.4,3,.31,5.54-.11,5-.82,5.2-3.63,8.75-3.91,4.32-.35,5.33,3.71,11.38,4.1,3,.2,3.3-.77,5.57-.21a11.56,11.56,0,0,1,7.6,7.27c1.64,4.69-1.07,7.61,1.34,11.16a8.69,8.69,0,0,0,3.1,2.63c5.71,3.43,9.28,15.4,8.51,23.26C294.25,167,273.82,168.25,269.57,186.73Z" transform="translate(-187.69 -11.29)"/><path d="M222.58,262.72l.92-34.8c.29-10.78,1.19-21.83-.93-32.47s-6.17-20.92-8.86-31.46c-1.36-5.33-1.08-10.55-1.27-16a121.11,121.11,0,0,0-1.81-15.06c-.16-.95-1.6-.55-1.45.4A108.69,108.69,0,0,1,211,149.73c.06,4.39-.07,8.64.87,13,2.33,10.59,6.48,20.75,8.89,31.33,2.53,11.08,1.57,22.65,1.27,33.91l-.92,34.8a.75.75,0,0,0,1.5,0Z" transform="translate(-187.69 -11.29)"/><path d="M210.87,132c.52-4.92,4.72-11.06,7.19-15.31,3-5.17,9.51-11.39,15.63-6.44.74.6,1.81-.45,1.06-1.06-4.47-3.61-10.34-2.24-14.21,1.61-2.88,2.86-4.63,6.64-6.46,10.2s-4.29,7-4.71,11c-.1,1,1.4,1,1.5,0Z" transform="translate(-187.69 -11.29)"/><path d="M235.17,110.64c4-2.58,9.21-7.09,14-3.56.79.56,1.54-.74.76-1.3-5.33-3.88-11.05.68-15.56,3.57-.81.52-.06,1.82.76,1.29Z" transform="translate(-187.69 -11.29)"/><path d="M251,107.1c2-3.16,6.43-3.91,10-3.4s4.45,2.65,6.54,5c.64.72,1.69-.34,1.06-1.07-1.22-1.39-2.06-3.34-3.61-4.44s-3.38-1-5.18-1c-4,0-7.78.62-10.08,4.17-.52.81.78,1.57,1.3.76Z" transform="translate(-187.69 -11.29)"/><path d="M268.55,109c2.05-1.88,4.84-2.9,7.31-1.19a18.55,18.55,0,0,1,4.17,4.31c2.61,3.79,2.06,8.4,1.52,12.72-.12,1,1.38.94,1.5,0,.85-6.75.49-11.74-4.52-16.56-1.46-1.41-2.57-2.8-4.69-2.93a8.67,8.67,0,0,0-6.35,2.59c-.72.66.35,1.71,1.06,1.06Z" transform="translate(-187.69 -11.29)"/><path d="M282.19,126a21.43,21.43,0,0,1,4.77,2.12.75.75,0,0,0,.75-1.3,23.23,23.23,0,0,0-5.12-2.27c-.93-.28-1.32,1.17-.4,1.45Z" transform="translate(-187.69 -11.29)"/><path d="M286.92,127.87c2,5.6,4.08,11.18,5.93,16.83,2.44,7.47,1.2,12.87-4.09,18.65-6.88,7.52-14.69,14.06-19.84,23a.75.75,0,0,0,1.3.76c3.26-5.68,7.59-10.46,12.16-15.1,3.88-3.94,8.41-7.74,11.29-12.52,2.43-4,2.58-8.27,1.37-12.77-1.76-6.52-4.43-12.88-6.67-19.25-.32-.91-1.77-.52-1.45.4Z" transform="translate(-187.69 -11.29)"/><path d="M269,187.78a145.86,145.86,0,0,0,2.4,35.26c2.2,12.41,6.81,25.18,6.23,37.87-.05,1,1.45,1,1.5,0,.53-11.68-3.43-23.24-5.6-34.6-2.44-12.73-3.9-25.57-3-38.53.06-1-1.44-1-1.5,0Z" transform="translate(-187.69 -11.29)"/><path d="M217.44,130.86c.87,0,4.84-.68,5.64-.3,1.23.59.51,2.86.43,3.92-.17,2.36-.68,5.27.69,7.42,2,3.13,6.28,3.16,9.19,1.46,4.22-2.48,7.76-8.81,8.17-13.62.56-6.68-3.43-14.36-5.44-20.57-.29-.91-1.74-.52-1.44.4,2.36,7.3,7.38,16.73,4.14,24.22-1.6,3.68-4.7,9.32-9.36,9-6.31-.41-4.38-9.17-4.06-13.37a.76.76,0,0,0-1-.73,26.23,26.23,0,0,1-7,.66c-1,0-1,1.46,0,1.5Z" transform="translate(-187.69 -11.29)"/><path d="M232.83,145.06c2.07,3.39,4.23,5.41,8.22,3.87,3.7-1.44,11.35-5.83,13-9.86,1-2.4.41-5.65.45-8.17.06-3.76.12-7.53.17-11.29.06-4.61.29-9.51-3.41-12.84-.71-.65-1.77.41-1.06,1.06,5.2,4.69,2.91,15.91,2.82,22.13-.08,5.29.11,8.95-4.5,12.52-3.85,3-10.42,8.34-14.39,1.83-.5-.83-1.8-.07-1.3.75Z" transform="translate(-187.69 -11.29)"/><path d="M281.68,125.15c-4.9.53-9.57-.12-14.41-.86-2.25-.35-5.34-1.24-7.64-.57-4.21,1.22-3.92,5.93-2.69,9.33,2.94,8.1,16.64,20.86,25.16,12.52.69-.68-.37-1.74-1.06-1.06-7.39,7.23-22.27-5.34-23.18-13.47-1-9.12,8.49-5.33,12.67-4.74a43.82,43.82,0,0,0,11.15.35c.95-.1,1-1.6,0-1.5Z" transform="translate(-187.69 -11.29)"/><path d="M249.26,175.43c-2.07-6.26-.91-12.76,2.39-18.39a22.8,22.8,0,0,1,5.47-6.57c4.1-3.19,8.86-2.76,13.7-2.07.94.14,1.35-1.31.4-1.44-8.15-1.18-14.14-.14-19.17,6.74-4.69,6.41-6.77,14.47-4.24,22.13.3.91,1.75.52,1.45-.4Z" transform="translate(-187.69 -11.29)"/><path d="M246.72,146.16a6.83,6.83,0,0,0,7.63,3.62c3.94-.79,6.48-4.11,8.15-7.52.43-.86-.87-1.62-1.29-.76-1.15,2.33-2.57,4.62-4.89,5.94-2.95,1.68-6.68,1.23-8.31-2-.43-.87-1.72-.11-1.29.76Z" transform="translate(-187.69 -11.29)"/><path d="M268.91,123.05l.66-13.89c0-1-1.46-1-1.5,0l-.66,13.89c0,1,1.46,1,1.5,0Z" transform="translate(-187.69 -11.29)"/><path d="M226.05,129.3v-7.14a.75.75,0,0,0-1.5,0v7.14a.75.75,0,0,0,1.5,0Z" transform="translate(-187.69 -11.29)"/><path class="cls-1" d="M281.52,36a2.87,2.87,0,0,0,3.08,2.55A5,5,0,0,0,288.87,36a.76.76,0,0,0-.85-1.1c-.44.15-4.25,1.67-4.4,1.08a.75.75,0,0,0-1.44.4c.67,2.69,4.69.49,6.24,0l-.85-1.1a3.5,3.5,0,0,1-2.16,1.71c-.77.2-2.35.17-2.39-.94,0-1-1.54-1-1.5,0Z" transform="translate(-187.69 -11.29)"/><path class="cls-2" d="M200.58,70.77A3.44,3.44,0,0,0,204,74.39a4.45,4.45,0,0,0,4-3.14,1.5,1.5,0,0,0-1-1.84,1.52,1.52,0,0,0-1.84,1,1.44,1.44,0,0,1-1,.92c-.44.06-.6-.24-.55-.61a1.51,1.51,0,0,0-1.5-1.5,1.53,1.53,0,0,0-1.5,1.5Z" transform="translate(-187.69 -11.29)"/></svg>